<?xml version="1.0" standalone="no"?>
<!DOCTYPE svg PUBLIC "-//W3C//DTD SVG 20010904//EN"
 "http://www.w3.org/TR/2001/REC-SVG-20010904/DTD/svg10.dtd">
<svg version="1.0" xmlns="http://www.w3.org/2000/svg"
 width="1000.000000pt" height="1500.000000pt" viewBox="0 0 1000.000000 1500.000000"
 preserveAspectRatio="xMidYMid meet">
<metadata>
Created by potrace 1.16, written by Peter Selinger 2001-2019
</metadata>
<g transform="translate(0.000000,1500.000000) scale(0.100000,-0.100000)"
fill="#000000" stroke="none">
<path d="M4047 14028 c-3 -10 -27 -28 -54 -39 -26 -11 -66 -29 -88 -40 l-40
-19 42 0 c37 0 44 -4 58 -31 15 -29 15 -32 -1 -50 -9 -11 -15 -21 -13 -23 2
-3 38 2 79 10 109 20 175 19 200 -6 36 -36 25 -52 -70 -103 -88 -46 -119 -75
-62 -57 15 5 56 18 92 29 79 25 190 27 296 5 80 -16 138 -16 99 1 -34 15 -125
87 -125 99 0 16 -60 69 -102 90 -18 9 -40 21 -48 26 -8 5 -33 17 -55 26 -22
10 -69 36 -104 58 -73 45 -97 51 -104 24z"/>
<path d="M3199 13404 c-12 -34 12 -122 40 -148 24 -22 49 -93 58 -164 7 -62
34 -104 54 -84 7 6 23 12 35 12 36 0 214 -110 214 -132 0 -3 15 -24 34 -45
101 -112 96 -103 96 -169 0 -34 5 -108 12 -165 6 -57 11 -115 10 -129 -1 -14
6 -49 14 -79 12 -41 18 -51 27 -42 8 8 10 48 7 129 -2 64 -4 144 -4 177 l-1
60 32 3 c26 3 44 -7 99 -50 97 -77 122 -102 128 -129 2 -13 9 -87 15 -164 19
-246 34 -349 52 -360 32 -20 40 152 17 354 -11 103 -11 104 11 123 33 26 48
23 87 -16 27 -27 34 -42 34 -74 0 -23 11 -96 25 -164 14 -68 29 -163 35 -213
9 -89 32 -201 43 -211 3 -4 11 -3 17 1 11 7 10 41 -10 225 -24 216 -44 357
-57 395 -14 40 -58 95 -77 95 -10 0 -101 78 -229 196 -32 30 -70 62 -85 71
-87 54 -138 157 -161 328 -6 43 -13 80 -15 82 -6 7 -23 -22 -45 -77 -17 -44
-27 -56 -45 -58 -20 -1 -27 7 -44 51 -27 68 -42 145 -42 211 0 96 -7 114 -49
118 -20 3 -43 8 -52 12 -26 11 -43 -68 -35 -162 6 -70 5 -81 -14 -105 -12 -15
-26 -27 -31 -27 -11 0 -58 51 -59 63 0 5 -13 25 -30 45 -18 23 -37 65 -49 112
-21 83 -38 130 -46 130 -3 0 -10 -12 -16 -26z"/>
<path d="M6628 13370 c-26 -5 -60 -17 -76 -29 -16 -11 -39 -22 -53 -24 -41 -7
-59 -18 -59 -38 0 -18 2 -18 40 -3 68 28 64 10 -7 -26 -115 -58 -243 -168
-310 -269 -21 -31 -41 -58 -44 -61 -11 -9 -57 -113 -68 -155 -13 -47 -40 -97
-41 -75 0 15 21 98 35 135 7 20 7 20 -8 0 -22 -29 -66 -143 -74 -187 -7 -46
-23 -50 -23 -6 0 54 -10 25 -21 -63 -7 -59 -7 -115 1 -189 10 -96 15 -115 66
-220 66 -136 125 -221 196 -285 53 -46 215 -131 333 -174 50 -18 66 -30 93
-69 17 -26 36 -69 41 -97 5 -27 14 -61 19 -75 10 -26 27 -210 37 -405 6 -97
11 -138 30 -221 4 -17 13 -21 55 -22 l50 -1 0 41 c0 22 -9 102 -20 177 -10 75
-24 190 -30 256 -19 223 -27 280 -44 319 -9 21 -16 48 -16 61 0 12 -13 41 -30
63 -34 48 -36 55 -15 72 9 7 14 18 12 23 -4 13 -97 37 -115 29 -8 -3 -21 3
-28 13 -7 9 -26 17 -41 17 -15 0 -30 3 -33 7 -3 3 -15 15 -28 26 l-24 19 -17
-23 -18 -24 -54 29 c-109 58 -256 235 -275 332 -6 31 -6 32 24 26 25 -5 36 -1
56 21 14 16 26 36 26 46 0 27 30 51 54 45 12 -3 35 0 53 6 25 9 38 9 56 -1 20
-10 30 -10 59 2 38 16 50 40 37 74 -8 21 -14 22 -91 19 -69 -2 -94 -8 -148
-34 -42 -20 -67 -27 -71 -20 -4 6 -17 8 -29 5 -48 -12 -52 -2 -45 107 17 254
63 353 249 546 90 94 181 147 293 174 32 7 72 20 88 29 17 8 63 25 103 37 39
12 72 26 72 30 0 4 -29 8 -65 9 -36 0 -76 3 -88 5 -12 2 -43 0 -69 -4z"/>
<path d="M5215 13286 c-84 -14 -163 -42 -190 -68 -19 -18 -19 -18 2 -18 11 0
49 11 84 24 76 28 244 51 308 41 25 -4 60 -18 78 -31 17 -13 35 -24 39 -24 3
0 38 -30 76 -66 38 -36 75 -63 81 -61 27 9 13 30 -58 90 -82 70 -152 100 -269
112 -33 4 -64 8 -70 10 -6 1 -42 -3 -81 -9z"/>
<path d="M4626 12751 c-15 -23 -30 -41 -35 -41 -18 0 -52 -126 -58 -210 -7
-109 13 -193 73 -317 36 -72 62 -109 112 -159 68 -67 87 -80 232 -157 119 -63
130 -81 130 -216 0 -58 5 -183 10 -278 7 -142 12 -178 30 -212 55 -109 59 -20
22 533 l-7 99 -59 51 c-33 28 -86 77 -118 108 -38 38 -72 61 -98 68 -21 6 -46
17 -54 25 -8 8 -18 15 -23 15 -13 0 -88 100 -115 155 -44 88 -59 394 -24 509
9 32 15 60 12 63 -2 3 -16 -14 -30 -36z"/>
<path d="M6742 12580 c-19 -12 -42 -20 -53 -18 -10 2 -18 -1 -18 -7 0 -15 -38
-23 -111 -24 -39 -1 -71 4 -78 11 -9 9 -15 9 -24 -1 -11 -10 -9 -16 10 -31 12
-10 22 -23 22 -28 0 -5 7 -13 16 -16 24 -9 142 -7 162 3 59 30 104 43 148 40
27 -2 59 2 72 9 14 8 22 9 22 2 0 -5 15 -10 34 -10 24 0 38 -7 52 -26 14 -19
25 -24 45 -20 14 3 38 -1 52 -9 30 -16 33 -14 42 38 5 24 3 37 -4 38 -6 1 -15
3 -21 4 -5 1 -21 3 -34 4 -14 0 -37 13 -53 27 -25 23 -29 24 -39 9 -9 -13 -22
-15 -56 -10 -23 4 -61 9 -83 12 -22 3 -44 9 -49 14 -14 12 -16 12 -54 -11z"/>
<path d="M5454 12388 c-9 -18 -24 -42 -33 -53 -69 -80 -76 -358 -12 -458 11
-18 37 -63 57 -101 58 -112 108 -171 184 -221 38 -25 82 -50 97 -56 50 -19
124 -71 137 -98 12 -22 12 -38 0 -101 -20 -106 -21 -107 -52 -108 -32 0 -122
39 -141 62 -15 17 -48 21 -70 7 -8 -5 -27 -5 -43 0 -30 8 -58 3 -58 -11 0 -4
11 -11 25 -14 14 -4 33 -14 43 -24 39 -38 72 -51 147 -57 89 -7 113 -15 140
-45 19 -21 20 -34 16 -266 l-3 -244 30 0 c19 0 32 6 37 18 4 9 11 89 16 177 6
88 12 170 14 182 8 38 33 54 71 47 67 -12 69 1 6 64 -32 32 -58 67 -58 77 -7
192 -7 192 11 198 16 7 117 -26 153 -49 38 -25 54 -78 54 -179 -1 -49 -3 -100
-6 -112 -3 -13 0 -23 6 -23 30 0 74 -91 82 -168 6 -67 26 -111 57 -131 18 -11
19 -9 15 31 -4 43 -8 60 -19 88 -11 31 -18 96 -8 80 8 -12 11 -11 16 5 4 11
14 33 22 49 14 26 14 30 1 40 -29 21 -55 81 -61 141 -13 125 -93 270 -161 291
-11 4 -37 17 -56 29 -19 13 -56 30 -81 40 -25 9 -57 26 -70 39 -13 12 -54 37
-90 56 -94 49 -189 141 -232 225 -44 87 -58 149 -58 254 1 59 7 121 15 145 18
55 28 126 18 126 -11 0 -48 -75 -58 -115 -16 -70 -41 -71 -72 -5 -22 48 -22
52 -7 122 18 86 17 78 5 78 -5 0 -17 -15 -26 -32z"/>
<path d="M2460 10395 c-17 -21 -84 -55 -106 -55 -10 0 -32 -5 -50 -12 -28 -10
-36 -9 -52 5 -19 17 -52 14 -52 -5 0 -5 -9 -23 -20 -38 -11 -16 -23 -42 -26
-59 -6 -28 -13 -33 -61 -47 -32 -9 -69 -13 -88 -10 -41 8 -65 -1 -65 -25 0
-10 -5 -19 -10 -19 -6 0 -10 -6 -9 -12 8 -63 1 -74 -65 -97 -42 -15 -71 -32
-81 -48 -16 -24 -15 -26 14 -54 17 -16 35 -29 41 -29 11 0 9 -28 -5 -50 -5 -8
-21 -40 -36 -70 -21 -45 -34 -59 -71 -77 -25 -13 -57 -23 -72 -23 -26 0 -26 1
-12 28 8 15 17 44 21 65 4 20 11 37 16 37 5 0 9 6 9 13 0 8 9 22 20 32 12 10
19 24 16 31 -3 7 2 18 10 24 17 15 19 51 2 49 -23 -3 -38 1 -37 9 7 40 -18 59
-28 22 -3 -11 -11 -20 -19 -20 -15 0 -24 -12 -29 -39 -2 -11 -14 -33 -26 -50
-17 -24 -27 -29 -49 -25 -17 4 -31 0 -39 -10 -14 -17 -7 -36 13 -36 8 0 17
-15 20 -34 4 -18 15 -41 26 -51 11 -10 20 -26 20 -36 0 -32 23 -69 42 -69 11
0 49 17 85 38 36 20 88 50 116 65 28 16 76 48 106 71 31 24 83 58 116 76 70
38 151 98 183 135 22 25 22 27 6 40 -16 11 -16 17 -6 39 7 15 12 37 12 49 0
12 7 31 16 42 9 12 12 30 9 47 -8 35 19 78 45 71 10 -3 31 -23 46 -44 15 -21
31 -39 35 -39 19 0 7 -19 -13 -22 -19 -2 -24 -10 -26 -45 -4 -48 -2 -49 36
-29 33 17 111 96 95 96 -6 0 -14 23 -18 51 -6 43 -4 54 14 73 20 21 20 26 8
55 -12 29 -15 30 -27 16z m-348 -360 c18 -15 19 -20 8 -23 -21 -7 -40 -28 -40
-45 0 -18 -53 -77 -69 -77 -6 0 -11 -4 -11 -9 0 -12 -43 -1 -52 13 -21 30 -7
68 42 117 54 54 81 60 122 24z"/>
<path d="M3698 9715 c-35 -30 -117 -99 -183 -152 -66 -53 -138 -112 -160 -132
-22 -20 -62 -54 -89 -76 -74 -60 -266 -223 -306 -259 -19 -18 -96 -80 -170
-140 -236 -188 -335 -274 -326 -284 7 -7 142 76 333 205 399 268 639 455 759
589 180 202 251 304 215 304 -6 0 -38 -25 -73 -55z"/>
<path d="M1115 9551 c-16 -4 -113 -6 -215 -4 -173 3 -189 1 -255 -21 -38 -14
-82 -27 -97 -30 -32 -7 -88 -52 -88 -71 0 -27 -3 -27 281 7 103 12 150 2 157
-34 4 -22 -68 -136 -90 -143 -10 -4 -18 -11 -18 -16 0 -6 -13 -24 -29 -41 -29
-31 -31 -31 -70 -19 -57 17 -81 3 -81 -47 0 -41 28 -91 48 -85 6 3 12 11 12
18 0 7 13 15 29 17 17 2 28 1 26 -3 -6 -9 42 -18 66 -12 10 3 19 9 19 14 0 5
9 9 20 9 12 0 34 7 50 15 68 35 55 88 -20 78 -25 -4 -40 -2 -40 5 0 15 67 27
83 14 17 -14 112 1 167 27 25 11 67 40 94 65 27 24 62 47 77 50 16 3 55 22 87
42 58 37 162 131 162 147 0 5 -6 5 -12 -1 -22 -17 -101 -24 -133 -12 -16 7
-59 16 -95 20 -36 5 -74 11 -85 14 -11 2 -33 1 -50 -3z"/>
<path d="M4890 9285 c-14 -7 -44 -19 -68 -25 -34 -9 -45 -17 -57 -46 -10 -26
-26 -40 -59 -54 -63 -29 -74 -74 -11 -50 14 5 37 10 51 10 18 0 29 9 40 33 21
44 125 98 173 91 35 -6 38 1 15 34 -17 25 -46 27 -84 7z"/>
<path d="M5336 9291 c-8 -13 10 -51 25 -51 6 0 23 -9 37 -19 17 -12 49 -20 87
-22 l60 -4 0 35 c0 29 -5 37 -30 49 -38 18 -170 28 -179 12z"/>
<path d="M5103 9221 c-17 -11 -34 -28 -37 -39 -11 -33 -45 -56 -93 -62 -41 -5
-47 -8 -60 -43 -21 -51 -8 -65 44 -49 21 6 54 14 73 19 23 6 42 20 58 43 13
19 40 43 60 54 30 15 41 17 68 7 46 -17 64 -6 64 39 0 45 -9 50 -88 50 -39 0
-67 -6 -89 -19z"/>
<path d="M5552 9131 c-43 -33 -57 -38 -80 -32 -15 5 -47 6 -72 4 -37 -3 -51
-11 -76 -40 -27 -32 -34 -36 -66 -30 -43 6 -73 -11 -82 -48 -4 -14 -15 -34
-26 -45 -43 -43 -10 -110 53 -110 35 0 77 24 77 43 0 7 21 34 47 60 55 56 85
61 103 17 9 -22 19 -30 38 -30 l25 0 -22 -24 c-12 -13 -35 -26 -51 -29 -15 -4
-40 -17 -55 -30 -24 -20 -28 -32 -32 -94 -5 -68 -7 -72 -35 -82 -45 -16 -61
-5 -53 36 7 39 -15 83 -42 83 -9 0 -24 6 -32 14 -15 13 -68 21 -113 17 -26 -2
-24 -85 3 -130 l20 -33 76 7 75 7 -7 -24 c-12 -40 -35 -68 -55 -68 -10 0 -45
7 -77 15 -62 16 -113 12 -113 -10 0 -27 -40 -44 -91 -38 -46 5 -49 4 -59 -23
-6 -15 -10 -42 -8 -59 3 -26 -1 -31 -31 -41 -41 -13 -59 -40 -40 -60 16 -14
115 -20 167 -9 37 9 41 -2 14 -36 -16 -18 -17 -30 -10 -67 10 -54 8 -52 44
-55 24 -2 32 5 52 41 14 24 46 65 71 90 26 26 62 66 80 89 33 44 32 48 -14 55
-25 4 -30 27 -12 52 13 18 19 18 76 7 52 -10 64 -10 83 3 12 9 34 16 49 16 28
0 79 40 79 63 0 8 9 26 20 40 11 14 27 45 36 69 8 24 28 70 43 103 52 108 62
186 22 169 -40 -16 -50 -15 -61 6 -9 17 -8 26 5 46 18 28 32 30 61 9 19 -13
23 -12 44 10 27 29 41 115 19 115 -8 0 -38 -18 -67 -39z"/>
<path d="M6964 9113 c-53 -48 -324 -386 -324 -403 0 -12 72 -32 127 -35 23 -2
47 -6 54 -11 20 -12 84 -5 152 17 33 10 68 19 79 19 10 0 30 12 44 27 18 20
34 27 59 26 19 -1 37 3 40 7 3 5 7 51 10 102 4 88 -13 211 -33 230 -8 7 -147
38 -173 38 -9 0 -25 -8 -35 -17z"/>
<path d="M615 9012 c-16 -10 -48 -19 -69 -20 -22 -2 -44 -6 -50 -10 -19 -12
-68 -10 -102 4 -64 27 -135 8 -166 -44 -13 -22 -14 -31 -4 -50 7 -12 14 -20
17 -17 7 7 76 -21 84 -34 3 -6 -3 -19 -15 -31 -11 -11 -20 -23 -20 -27 0 -5
-13 -23 -29 -40 -25 -28 -35 -33 -75 -33 -32 0 -52 -6 -65 -19 -10 -10 -41
-31 -70 -47 -49 -28 -51 -31 -51 -71 l0 -43 47 34 c27 18 71 45 98 59 28 14
62 37 77 51 15 14 46 33 70 42 36 14 149 96 195 140 7 7 34 19 61 28 28 10 67
34 95 62 46 44 48 47 31 65 -21 23 -22 23 -59 1z"/>
<path d="M4834 8921 c-70 -42 -47 -66 71 -76 90 -7 115 0 115 34 0 28 -21 41
-66 41 -24 0 -46 5 -49 10 -10 15 -37 12 -71 -9z"/>
<path d="M4625 8806 c-30 -9 -45 -21 -62 -51 -13 -22 -23 -44 -23 -48 0 -19
33 -17 72 3 28 15 51 20 72 16 42 -8 51 1 53 52 l1 42 -36 -1 c-21 0 -55 -6
-77 -13z"/>
<path d="M4915 8735 c-5 -2 -21 -6 -35 -9 -15 -3 -40 -26 -65 -61 -48 -66
-101 -91 -134 -61 -18 16 -20 16 -41 -6 -12 -13 -24 -35 -27 -50 -4 -23 -11
-28 -33 -28 -32 0 -48 -27 -27 -47 11 -11 22 -11 65 0 41 10 61 24 105 70 29
31 61 57 69 57 9 0 20 5 23 10 7 12 55 14 55 3 0 -5 11 -15 24 -25 20 -15 25
-15 54 -1 17 8 29 19 26 24 -3 5 0 28 7 51 10 39 9 44 -11 60 -21 17 -34 20
-55 13z"/>
<path d="M6878 8593 c-19 -5 -25 -23 -8 -23 18 0 10 -18 -10 -23 -12 -3 -21
-14 -22 -29 -2 -42 -3 -47 -9 -53 -4 -3 -15 14 -25 39 -11 25 -24 46 -31 46
-6 0 -18 3 -27 6 -11 4 -16 0 -16 -13 0 -16 -5 -19 -32 -15 -18 2 -39 9 -45
14 -9 7 -13 7 -13 -1 0 -24 -28 -43 -47 -32 -17 10 -17 10 1 11 18 0 18 1 1
20 -44 49 -142 -38 -128 -113 4 -21 1 -27 -12 -27 -14 0 -16 -6 -10 -40 8 -49
-1 -52 -20 -5 -11 24 -12 41 -5 60 5 14 6 25 1 25 -6 0 -5 16 1 36 11 43 -5
71 -25 43 -7 -9 -17 -14 -23 -12 -6 2 -14 -5 -17 -17 -5 -20 -33 -26 -112 -21
l-30 1 28 -15 c27 -15 36 -35 17 -35 -5 0 -10 5 -10 10 0 12 -49 -17 -67 -40
-7 -8 -10 -22 -7 -31 7 -23 -22 -45 -30 -23 -3 9 -3 21 1 27 3 7 3 9 -1 5 -4
-3 -19 0 -33 7 -14 7 -32 11 -39 8 -8 -3 -14 1 -14 11 0 9 7 16 15 16 8 0 15
5 15 10 0 15 -34 -5 -57 -33 -10 -13 -26 -26 -35 -30 -17 -6 -25 -47 -12 -60
4 -3 16 -2 27 4 14 8 18 8 13 0 -9 -14 17 -41 38 -41 9 0 16 6 16 14 0 17 42
26 64 14 10 -6 16 -22 16 -44 0 -21 -4 -33 -10 -29 -5 3 -10 1 -10 -4 0 -6 6
-11 13 -12 6 0 2 -4 -10 -9 -13 -5 -23 -17 -23 -26 0 -9 -11 -29 -25 -46 -30
-36 -32 -31 -5 17 24 43 25 47 3 43 -10 -1 -24 1 -30 5 -8 5 -20 0 -30 -13
-21 -25 -68 -26 -83 -2 -9 14 -10 11 -6 -15 5 -28 2 -33 -14 -33 -11 0 -20 -3
-20 -7 0 -5 -18 -19 -39 -32 -37 -23 -61 -56 -61 -86 0 -22 19 -28 36 -11 27
28 51 13 39 -24 -7 -22 -36 -26 -64 -9 -12 8 -23 9 -36 2 -37 -21 -22 -121 18
-121 12 0 47 -7 77 -14 82 -21 35 -32 -53 -12 -77 17 -116 33 -84 34 9 0 17 7
17 15 0 8 -7 15 -15 15 -8 0 -15 -4 -15 -10 0 -5 -9 -10 -20 -10 -11 0 -20 6
-20 14 0 8 -5 16 -11 18 -21 7 1 46 37 68 52 33 60 55 32 90 -30 39 -81 39
-87 0 -1 -14 -8 -28 -15 -32 -13 -8 -15 -70 -3 -79 5 -3 -9 -13 -30 -22 -42
-16 -70 -43 -59 -54 4 -4 16 -1 28 6 11 7 31 15 43 17 20 3 22 1 17 -18 -4
-17 -2 -20 12 -15 13 5 19 1 23 -13 3 -11 14 -20 25 -20 11 0 16 -5 13 -11 -4
-6 2 -13 14 -16 25 -6 27 -16 6 -33 -13 -11 -14 -10 -10 3 10 23 -14 31 -36
11 -20 -18 -27 -6 -7 14 9 9 9 15 -1 25 -10 10 -16 7 -31 -13 -11 -14 -20 -31
-20 -38 0 -7 -12 -17 -27 -23 -35 -14 -183 -20 -183 -8 0 5 -17 9 -37 9 -25 0
-33 -3 -25 -9 19 -11 -42 -22 -111 -21 -83 3 -198 -18 -213 -38 -10 -14 -16
-15 -32 -5 -12 7 -24 8 -33 2 -8 -5 -28 -9 -46 -9 -17 0 -35 -4 -38 -10 -3 -5
-15 -10 -26 -10 -14 0 -19 -7 -19 -25 0 -29 -21 -33 -45 -9 -11 12 -19 13 -28
5 -8 -6 -37 -8 -70 -5 -46 3 -55 2 -51 -10 6 -15 -3 -19 -66 -32 -21 -4 -52
-23 -80 -50 -25 -24 -50 -44 -57 -44 -6 0 -14 -9 -18 -20 -3 -10 -26 -37 -50
-58 -24 -21 -49 -51 -56 -65 -7 -15 -17 -27 -23 -27 -6 0 -20 -7 -30 -15 -16
-12 -17 -18 -8 -27 9 -9 12 -9 12 2 0 13 2 13 9 1 7 -10 26 4 80 58 39 39 76
71 83 71 7 0 21 9 33 19 11 10 36 34 56 53 l35 33 20 -24 20 -23 39 27 c37 26
35 27 -12 8 -11 -4 -14 -3 -9 6 6 8 2 11 -9 9 -10 -2 -20 3 -22 10 -3 7 4 12
15 12 10 0 56 9 100 20 45 11 97 18 117 16 30 -4 37 -1 45 18 11 30 71 54 146
57 52 3 59 1 59 -16 0 -11 8 -21 18 -23 9 -2 17 2 17 8 0 6 -4 8 -10 5 -5 -3
-10 0 -10 8 0 17 53 39 75 31 7 -3 16 -12 19 -20 3 -9 10 -12 16 -9 5 3 10 2
10 -4 0 -15 -18 -23 -25 -11 -3 5 -11 10 -17 10 -15 0 21 -38 42 -45 10 -3 29
-1 44 4 21 9 26 8 26 -4 0 -8 -4 -15 -10 -15 -5 0 -10 -7 -10 -15 0 -18 -9
-19 -46 -5 -25 10 -26 9 -20 -12 3 -13 6 -26 6 -31 0 -4 11 -5 25 -1 28 7 30
2 15 -27 -7 -13 -7 -19 0 -19 5 0 10 -5 10 -11 0 -8 -4 -8 -15 1 -15 12 -55 5
-55 -11 0 -5 -9 -9 -19 -9 -10 0 -22 -7 -25 -16 -4 -12 -2 -15 9 -10 9 3 15 0
15 -9 0 -22 13 -19 66 19 44 30 49 37 46 67 -3 30 -2 32 12 19 19 -19 26 -121
9 -127 -6 -2 -13 6 -15 18 -4 28 -23 35 -32 12 -5 -12 0 -24 14 -35 l22 -18
-21 0 c-12 0 -21 6 -22 13 0 6 -6 -4 -13 -23 -6 -19 -17 -34 -24 -33 -6 2 -9
-3 -6 -10 3 -8 -5 -19 -18 -25 -22 -12 -22 -12 6 -7 l29 6 -6 -43 c-4 -29 -3
-36 3 -22 4 12 15 24 24 27 9 4 16 12 16 20 0 7 20 34 45 60 24 26 50 57 56
68 6 11 13 19 15 16 6 -6 -29 -67 -38 -67 -5 0 -8 -6 -8 -14 0 -7 -7 -19 -15
-26 -8 -7 -15 -23 -15 -36 0 -13 -4 -24 -9 -24 -12 0 -55 -69 -47 -77 8 -9
-13 -43 -27 -43 -14 0 -67 -51 -67 -63 0 -4 11 -5 25 -1 16 4 30 0 40 -10 23
-23 38 -20 31 7 -4 16 1 26 15 35 11 7 18 19 15 27 -6 16 17 38 28 27 4 -4 12
1 17 11 16 28 26 20 25 -20 -1 -26 3 -37 12 -35 17 3 15 -15 -3 -22 -8 -3 -15
-12 -15 -21 0 -8 -6 -14 -12 -13 -7 2 -12 -2 -11 -8 1 -6 -11 -11 -27 -12 -39
-1 -46 -6 -59 -43 -9 -26 -8 -30 4 -25 8 3 15 1 15 -4 0 -17 36 -11 63 10 14
11 30 20 35 20 13 0 36 36 50 79 9 26 9 37 0 48 -6 7 -12 28 -13 45 -5 52 -51
74 -87 41 -29 -26 -21 -9 11 25 22 22 31 27 35 16 7 -19 26 -18 26 1 0 8 5 15
10 15 6 0 10 -4 10 -10 0 -5 7 -10 15 -10 8 0 15 -4 15 -10 0 -5 7 -10 16 -10
14 0 14 -2 -1 -16 -15 -15 -15 -18 4 -36 22 -20 28 -48 10 -48 -5 0 -7 5 -3
11 3 6 0 15 -7 20 -23 14 -29 10 -25 -13 3 -13 5 -31 5 -40 1 -15 4 -15 29 -2
36 19 45 18 60 -6 11 -18 9 -21 -20 -35 l-33 -15 33 6 c30 5 33 4 28 -12 -3
-13 3 -25 18 -36 19 -14 27 -14 47 -4 19 10 24 19 23 50 -1 25 2 33 7 25 12
-19 11 -66 -1 -74 -16 -10 -12 -28 5 -21 21 8 19 -4 -5 -24 -12 -10 -19 -24
-18 -31 2 -7 -4 -14 -12 -16 -15 -3 -57 53 -52 70 3 11 -16 8 -24 -4 -4 -6 -7
-31 -8 -55 0 -24 -5 -45 -11 -47 -14 -3 -18 58 -6 81 9 16 7 21 -10 25 -15 4
-19 11 -15 24 3 10 1 25 -4 33 -8 12 -10 12 -11 -5 -1 -11 -1 -26 0 -32 1 -7
-3 -13 -9 -13 -5 0 -10 9 -10 20 0 20 -1 20 -25 3 -31 -23 -31 -33 -2 -34 14
0 17 -2 7 -6 -8 -3 -21 -13 -29 -22 -12 -14 -13 -14 -8 7 9 40 -44 17 -67 -30
-7 -13 -20 -22 -32 -21 -16 1 -14 -2 9 -21 30 -24 34 -36 12 -36 -8 0 -15 4
-15 8 0 5 -11 14 -25 20 -18 8 -25 20 -25 39 -1 25 -2 26 -14 11 -18 -25 -23
-23 -29 12 -4 17 -11 30 -17 30 -31 0 -43 -135 -14 -157 20 -15 10 -33 -16
-28 -36 7 -60 26 -60 47 0 26 -50 72 -64 58 -15 -15 -24 -12 -31 10 -4 11 -11
18 -16 15 -5 -4 -9 -1 -9 6 0 8 -4 8 -15 -1 -20 -17 -19 -30 3 -30 56 0 108
-81 96 -152 -7 -44 3 -50 17 -10 10 29 44 56 59 47 5 -3 7 -12 3 -20 -3 -10 1
-15 12 -15 9 0 13 -5 9 -11 -3 -6 0 -15 7 -21 11 -7 10 -12 -8 -25 -13 -8 -23
-26 -23 -39 0 -13 -5 -24 -11 -24 -6 0 -8 -7 -5 -16 3 -8 1 -25 -5 -36 -9 -17
-9 -20 4 -15 10 4 17 -2 21 -16 9 -33 7 -37 -9 -37 -8 0 -15 5 -15 10 0 6 -5
10 -11 10 -9 0 -9 -4 0 -14 14 -17 -5 -76 -25 -76 -22 0 -40 46 -25 64 7 8 10
20 6 26 -4 6 1 18 11 26 18 14 18 14 -1 12 -15 -2 -19 2 -18 17 3 26 -19 105
-29 105 -4 0 -8 -7 -8 -16 0 -10 -16 -41 -36 -70 -19 -30 -40 -67 -45 -84 -6
-16 -15 -28 -19 -25 -5 3 -31 -23 -58 -57 -28 -35 -62 -72 -76 -82 -14 -10
-26 -26 -26 -36 0 -9 -11 -22 -25 -28 -25 -12 -34 -32 -14 -32 6 0 9 -6 6 -14
-4 -10 4 -15 24 -18 16 -3 29 0 29 5 0 5 6 4 14 -2 7 -6 21 -9 30 -5 9 3 23 1
31 -6 15 -12 51 8 101 58 13 12 27 22 31 22 5 0 14 15 21 33 26 62 33 73 51
74 18 2 23 -31 8 -55 -5 -7 -4 -19 3 -27 14 -17 0 -27 -50 -35 -22 -3 -36 -12
-38 -23 -2 -11 1 -15 11 -11 8 3 18 0 23 -7 4 -7 2 -15 -4 -17 -7 -2 -12 -12
-12 -23 0 -24 -29 -71 -40 -64 -5 3 -17 -6 -27 -19 -13 -15 -24 -21 -32 -16
-10 5 -7 13 10 29 12 11 28 21 34 21 5 0 11 18 11 40 2 45 -18 54 -37 18 -15
-29 -78 -88 -93 -88 -15 0 -84 25 -92 33 -4 4 5 7 19 7 15 0 27 4 27 8 0 17
-25 32 -52 32 -17 0 -31 7 -38 20 -13 24 -30 26 -30 5 0 -8 5 -15 11 -15 6 0
9 -9 6 -20 -3 -11 -2 -18 3 -15 4 3 13 -2 20 -10 10 -13 9 -19 -5 -35 -9 -10
-20 -19 -24 -18 -19 2 -54 -4 -44 -9 22 -8 -19 -40 -61 -46 -22 -4 -42 -10
-45 -15 -9 -14 -46 -23 -65 -16 -23 9 -20 23 8 30 29 7 24 37 -5 32 -10 -2
-24 6 -32 16 -10 13 -16 15 -21 8 -4 -7 -3 -12 1 -12 5 0 8 -18 7 -40 -2 -33
1 -40 16 -40 22 0 34 -28 20 -45 -7 -9 -6 -16 6 -26 11 -9 14 -23 11 -46 -3
-18 -2 -33 2 -33 14 0 20 41 10 67 -7 18 -5 30 9 48 24 33 52 49 52 31 0 -8
-7 -16 -15 -20 -8 -3 -15 -12 -15 -20 0 -11 6 -12 37 -1 20 7 42 20 48 28 10
15 14 15 33 1 20 -14 22 -14 22 0 0 29 18 17 22 -15 3 -19 -1 -36 -9 -45 -12
-12 -12 -14 1 -14 9 0 16 7 16 15 0 8 5 15 10 15 6 0 10 -11 10 -25 0 -27 18
-32 51 -15 15 8 19 7 19 -5 0 -8 -8 -15 -18 -15 -46 0 -132 -60 -132 -92 0
-10 -4 -18 -10 -18 -5 0 -10 -6 -10 -13 0 -7 -9 -18 -19 -24 -11 -7 -22 -26
-26 -42 -4 -17 -11 -34 -17 -37 -7 -5 -9 0 -5 14 4 12 10 31 13 42 5 16 2 20
-15 20 -14 0 -19 5 -15 15 4 8 -1 17 -10 21 -20 8 -21 24 -1 24 8 0 15 -7 15
-15 0 -8 5 -15 10 -15 10 0 14 26 11 72 -1 14 3 29 8 33 6 3 11 18 11 33 l0
27 -26 -26 c-22 -22 -24 -30 -15 -47 8 -15 7 -21 -3 -25 -7 -3 -19 0 -25 6
-17 17 -31 -9 -31 -56 0 -51 -23 -102 -54 -123 -26 -17 -26 -17 -6 -31 11 -8
20 -21 20 -29 0 -9 11 -14 30 -14 17 0 30 -4 30 -10 0 -5 -6 -10 -14 -10 -8 0
-21 -8 -28 -18 -7 -10 -26 -27 -43 -38 -40 -25 -54 -44 -55 -71 0 -13 -4 -23
-9 -23 -5 0 -7 -8 -4 -18 2 -10 -2 -24 -10 -30 -12 -10 -14 -4 -12 36 0 26 7
57 13 70 11 19 10 23 -3 28 -12 5 -14 15 -9 40 5 29 3 34 -13 34 -26 0 -43 19
-44 50 0 14 -3 18 -6 10 -2 -8 -13 -33 -23 -55 -25 -55 -32 -92 -21 -113 7
-14 4 -25 -15 -48 -22 -26 -23 -26 -9 -3 12 20 13 33 6 52 -7 17 -7 28 -1 32
6 4 10 14 9 23 0 15 -1 15 -12 -1 -7 -10 -27 -34 -45 -54 -23 -26 -32 -43 -28
-57 6 -22 -23 -106 -37 -106 -4 0 0 16 8 36 8 20 15 44 15 53 -1 25 -52 -44
-72 -98 -23 -60 -24 -156 -2 -165 27 -10 34 -7 34 20 0 14 4 23 10 19 6 -3 10
-14 10 -24 0 -22 36 -56 44 -43 3 5 17 12 30 14 17 4 26 0 29 -12 3 -11 14
-17 30 -17 22 0 26 4 30 36 l4 36 1 -37 c2 -40 26 -54 35 -20 4 15 5 15 6 1 2
-31 51 -35 51 -5 0 7 12 11 32 10 17 -1 42 5 55 13 26 17 31 51 8 59 -8 4 -15
17 -15 31 0 13 -4 21 -10 18 -5 -3 -10 1 -10 9 0 9 5 16 10 16 17 0 11 18 -9
25 -24 7 -33 34 -36 113 -3 56 -2 61 11 45 7 -10 14 -24 14 -31 0 -21 25 -8
28 15 2 14 -3 23 -15 26 -16 4 -17 5 0 6 9 0 17 7 17 15 0 7 7 19 15 26 10 9
15 9 15 1 0 -15 25 -14 51 2 17 10 23 10 26 0 6 -18 23 -16 23 1 0 23 35 11
38 -13 2 -12 11 -25 20 -28 26 -10 41 -36 36 -58 -3 -12 0 -33 5 -48 10 -25 9
-27 -14 -27 -14 0 -25 -5 -25 -11 0 -5 4 -8 8 -5 4 2 14 1 22 -4 12 -8 12 -10
-2 -15 -14 -6 -15 -11 -6 -31 13 -28 28 -23 21 9 l-5 22 17 -23 c13 -18 14
-26 5 -37 -7 -9 -9 -26 -5 -44 6 -26 3 -32 -19 -42 -18 -9 -26 -20 -26 -37 0
-24 -1 -24 -18 -8 -18 15 -20 15 -45 -8 -15 -14 -27 -28 -27 -32 0 -4 11 3 24
15 17 16 26 19 31 10 4 -6 2 -15 -6 -20 -31 -17 -53 -38 -41 -39 14 0 17 -40
2 -40 -5 0 -10 -4 -10 -10 0 -5 8 -10 18 -10 20 1 56 46 47 59 -3 6 8 18 25
27 16 10 30 24 30 31 0 6 8 16 18 22 9 5 17 21 17 35 0 14 4 25 10 23 13 -3 7
-35 -12 -63 -8 -13 -13 -30 -11 -39 3 -15 7 -14 31 5 27 21 29 21 47 5 11 -10
22 -26 26 -37 3 -11 11 -17 18 -15 21 8 14 -73 -6 -84 -10 -6 -18 -17 -18 -24
0 -8 -4 -15 -10 -15 -5 0 -10 -5 -10 -11 0 -5 5 -7 10 -4 6 4 10 -6 10 -22 -1
-26 -1 -27 -15 -9 -14 18 -15 17 -32 -14 -24 -44 -50 -76 -56 -70 -3 3 3 30
13 60 10 30 16 57 14 60 -3 3 -18 -11 -34 -30 -29 -36 -47 -89 -32 -99 11 -8
23 -41 15 -41 -3 0 -12 8 -19 18 -12 15 -15 15 -24 2 -5 -8 -7 -23 -4 -32 3
-10 1 -18 -5 -18 -6 0 -11 6 -11 13 0 8 -4 7 -11 -3 -8 -11 -9 -7 -5 18 3 17
1 32 -4 32 -10 0 -17 -23 -19 -64 0 -16 -15 -57 -31 -91 -17 -34 -30 -69 -30
-77 0 -9 -7 -21 -16 -28 -13 -12 -15 -9 -10 29 3 23 14 57 25 75 18 29 27 98
21 156 -1 13 7 74 24 178 4 29 3 32 -9 22 -8 -7 -15 -22 -15 -34 0 -12 -6 -31
-14 -42 -8 -11 -12 -30 -9 -45 5 -27 -36 -131 -56 -144 -6 -3 -11 -26 -11 -50
0 -24 -4 -47 -10 -50 -5 -3 -10 -21 -10 -40 0 -19 -5 -37 -11 -40 -5 -4 -15
-19 -21 -33 -6 -15 -12 -22 -15 -15 -2 7 0 21 6 32 6 11 11 31 11 46 0 14 7
36 14 48 8 12 18 41 22 65 5 35 4 42 -10 42 -9 0 -16 -4 -16 -9 0 -5 -8 -17
-17 -27 -9 -9 -17 -28 -18 -43 0 -20 -8 -30 -32 -40 -18 -8 -33 -18 -33 -23 0
-13 18 -9 23 5 11 30 14 -4 6 -67 -5 -42 -5 -75 1 -86 13 -24 13 -73 1 -65 -5
3 -12 1 -16 -4 -3 -5 2 -14 11 -19 13 -7 10 -11 -19 -16 -20 -4 -37 -11 -39
-17 -2 -7 -18 -4 -43 8 -34 16 -40 23 -38 48 1 16 -2 34 -8 41 -14 17 -2 54
16 48 15 -6 18 2 40 116 27 137 46 189 77 208 39 23 36 42 -4 35 -18 -2 -38
-10 -45 -16 -14 -15 -35 -89 -22 -82 5 4 9 -4 9 -16 0 -18 -3 -20 -12 -11 -17
17 -29 15 -22 -3 4 -8 10 -12 15 -9 14 8 10 -48 -5 -78 -8 -15 -16 -43 -19
-63 -6 -43 -14 -54 -23 -31 -4 9 3 43 15 75 24 66 25 71 11 71 -5 0 -10 -11
-10 -25 0 -14 -4 -25 -10 -25 -5 0 -14 -18 -20 -40 -6 -22 -24 -55 -41 -74
-18 -21 -27 -40 -23 -50 3 -9 -2 -28 -11 -42 -11 -17 -15 -37 -11 -56 4 -18 2
-27 -5 -23 -6 4 -8 -2 -4 -17 4 -16 -1 -33 -16 -51 -15 -20 -20 -36 -16 -57 4
-19 1 -32 -9 -41 -9 -7 -28 -40 -43 -74 -16 -35 -42 -72 -62 -88 -19 -15 -40
-32 -48 -39 -10 -8 -15 -8 -20 1 -5 8 -15 9 -32 2 -19 -8 -20 -10 -6 -10 28
-1 14 -26 -14 -26 -17 0 -25 -6 -27 -22 -2 -13 -8 -23 -13 -23 -5 0 -9 -4 -9
-10 0 -5 7 -10 15 -10 8 0 15 -4 15 -10 0 -5 -12 -10 -26 -10 -22 0 -24 3 -18
23 11 32 11 117 0 117 -6 0 4 10 20 23 55 40 75 64 69 79 -4 10 4 23 19 36 14
11 26 25 26 31 0 6 5 11 10 11 7 0 8 13 4 34 -5 32 -4 34 15 29 12 -3 21 -1
21 6 0 6 -4 11 -10 11 -5 0 -10 12 -10 26 l0 26 18 -21 c15 -18 19 -19 36 -6
17 13 17 15 4 15 -9 0 -20 5 -24 12 -4 7 -3 8 4 4 14 -8 52 28 52 49 0 9 7 18
15 21 19 8 19 24 0 24 -8 0 -15 -4 -15 -10 0 -5 -5 -10 -11 -10 -8 0 -7 5 1
15 7 9 10 18 7 21 -3 4 2 14 13 23 23 20 44 91 30 105 -7 7 -10 3 -10 -10 0
-11 -9 -30 -20 -41 -10 -12 -22 -33 -26 -47 -3 -14 -10 -26 -15 -26 -5 0 -24
-24 -41 -52 -22 -35 -34 -47 -36 -36 -4 19 22 72 49 101 10 12 19 26 19 33 0
7 7 17 17 22 17 10 12 42 -6 42 -6 0 -24 -28 -41 -62 -35 -71 -67 -114 -77
-104 -4 3 3 16 14 29 36 39 62 97 54 120 -12 33 -29 31 -36 -4 -6 -28 -58 -89
-75 -89 -4 0 -22 -13 -40 -30 -35 -32 -50 -37 -50 -19 0 6 -7 8 -16 5 -9 -3
-12 -2 -9 5 4 5 16 7 28 3 18 -5 16 -1 -10 23 -35 32 -46 83 -18 83 17 0 20
21 5 36 -17 17 -2 39 38 57 23 10 42 28 50 47 8 17 18 27 24 24 6 -4 24 -8 39
-10 24 -3 29 0 29 17 0 11 -4 17 -10 14 -5 -3 -10 1 -10 11 0 13 3 14 14 5 20
-17 56 7 56 36 0 19 -6 23 -30 23 -16 0 -30 5 -30 10 0 6 6 10 13 9 32 -4 36
4 28 51 -1 2 -6 -1 -12 -7 -9 -9 -17 -9 -31 0 -16 10 -21 9 -29 -5 -9 -16 -12
-16 -35 9 -14 15 -22 33 -19 41 3 8 0 12 -7 10 -7 -3 -14 -14 -16 -26 -2 -12
-10 -22 -18 -22 -20 0 -17 -18 6 -32 11 -7 20 -19 20 -26 0 -10 7 -12 25 -8
20 5 25 3 25 -13 0 -14 -10 -20 -42 -25 -52 -8 -67 4 -45 37 15 23 14 37 -4
37 -3 0 -14 -16 -23 -35 -13 -26 -25 -36 -50 -40 -32 -6 -33 -8 -26 -39 4 -17
3 -43 -2 -56 -9 -23 -10 -24 -22 -8 -7 10 -16 15 -20 11 -4 -4 -4 0 0 10 3 9
10 14 15 11 5 -3 8 12 8 33 -1 21 -4 29 -6 19 -3 -12 -8 -15 -12 -8 -4 7 -12
8 -21 1 -12 -7 -12 -11 -2 -17 10 -7 10 -11 -3 -22 -10 -8 -15 -9 -15 -1 0 25
-19 8 -44 -39 -14 -28 -21 -50 -15 -50 6 0 8 -8 4 -20 -5 -14 -2 -20 9 -20 9
0 16 5 16 10 0 6 6 10 14 10 10 0 14 -10 13 -35 -1 -19 -6 -35 -11 -35 -5 0
-15 -8 -22 -17 -19 -26 -29 -8 -11 20 15 23 14 24 -19 36 -18 7 -43 24 -54 39
-18 22 -23 24 -30 12 -5 -8 -20 -31 -34 -50 -14 -19 -29 -43 -32 -52 -4 -10
-10 -18 -15 -18 -5 0 -9 -11 -9 -25 0 -14 5 -25 10 -25 12 0 60 48 60 60 0 12
83 2 100 -13 12 -10 22 -12 34 -5 25 14 33 1 13 -19 -16 -16 -20 -16 -73 2
-54 18 -56 18 -66 1 -6 -10 -21 -27 -34 -39 -16 -14 -26 -36 -30 -69 -8 -56
-19 -69 -28 -33 -7 27 -36 35 -36 10 0 -20 -10 -19 -26 3 -12 16 -14 16 -28
-3 -8 -11 -15 -29 -16 -40 0 -17 2 -17 10 -5 6 9 10 10 10 3 0 -7 16 -27 35
-46 38 -37 45 -57 18 -52 -10 1 -12 0 -5 -2 6 -3 12 -13 12 -24 0 -10 4 -19 9
-19 5 0 7 9 4 20 -3 11 0 20 6 20 6 0 11 -11 11 -25 0 -14 5 -25 10 -25 6 0
10 -7 10 -16 0 -9 -5 -12 -12 -8 -7 4 -8 3 -4 -4 5 -9 13 -9 27 -1 12 6 23 8
27 5 3 -3 1 -6 -5 -6 -10 0 -16 -18 -25 -75 -2 -12 2 -19 10 -17 10 2 13 -8
10 -34 -2 -23 2 -39 10 -42 15 -5 16 34 1 76 -7 22 -7 36 1 51 13 25 35 27 44
6 3 -8 13 -15 23 -15 14 -1 13 -5 -9 -20 -23 -18 -25 -25 -21 -60 5 -32 3 -40
-10 -40 -21 0 -40 -36 -34 -62 5 -19 4 -19 -20 -2 -26 16 -26 16 -20 -7 4 -13
7 -26 7 -29 0 -3 22 -5 50 -5 35 0 51 4 54 15 2 8 3 0 3 -19 -2 -33 0 -35 40
-43 37 -8 44 -6 67 17 14 14 26 36 26 49 0 13 7 27 16 30 24 9 29 7 16 -6 -7
-7 -12 -21 -12 -32 0 -10 -14 -32 -31 -47 l-31 -28 21 -27 c13 -16 19 -35 16
-46 -4 -10 -2 -18 4 -18 15 0 25 -61 11 -70 -7 -4 -11 -14 -8 -21 9 -23 -9
-56 -32 -62 l-22 -6 22 24 c27 28 21 56 -9 48 -28 -7 -28 22 -1 39 11 7 20 19
20 26 0 7 -4 11 -9 8 -5 -4 -12 0 -14 6 -4 9 -6 7 -6 -3 -1 -9 -10 -24 -20
-33 -11 -10 -17 -24 -14 -32 3 -9 -1 -14 -12 -14 -9 0 -13 5 -10 10 3 6 -1 17
-9 26 -15 14 -17 13 -26 -10 -5 -14 -14 -26 -20 -26 -16 0 -2 108 17 138 8 13
12 26 9 30 -12 11 -56 -22 -57 -42 0 -13 -3 -16 -6 -7 -3 7 4 30 16 51 24 43
19 51 -35 53 -27 1 -36 6 -40 24 -3 12 -19 28 -35 35 -16 7 -32 21 -35 30 -3
10 -12 18 -20 18 -8 0 -14 4 -14 9 0 5 -10 12 -22 16 -20 6 -20 8 -5 12 22 6
22 26 0 44 -13 12 -17 12 -21 1 -5 -17 -62 35 -57 52 17 56 16 66 -9 66 -14 0
-28 4 -31 10 -6 10 -60 8 -70 -2 -3 -3 -1 -18 5 -33 9 -23 7 -31 -9 -46 -18
-17 -20 -17 -37 2 -13 15 -15 22 -6 31 9 9 12 9 12 0 0 -7 5 -12 10 -12 6 0
10 9 10 21 0 30 -30 21 -51 -16 -9 -17 -20 -45 -24 -62 -6 -32 -5 -33 25 -33
20 0 33 -6 37 -17 10 -29 83 -97 83 -78 0 10 7 15 17 13 13 -2 20 -17 25 -51
6 -47 34 -104 45 -93 3 3 -2 17 -11 31 -22 34 -18 89 8 93 12 3 16 0 11 -7 -8
-15 16 -111 28 -111 5 0 7 -7 3 -15 -3 -9 0 -15 8 -15 17 0 39 -57 29 -74 -4
-6 2 -4 12 4 14 11 19 12 22 2 3 -6 9 -10 14 -6 5 3 9 2 9 -3 -1 -13 -34 -50
-51 -56 -9 -3 -19 -19 -22 -36 -5 -22 -12 -31 -27 -31 -11 0 -20 -4 -20 -9 0
-13 -43 -10 -53 4 -5 6 -6 2 -3 -8 3 -10 6 -22 6 -27 0 -5 9 -12 21 -15 15 -5
25 -1 35 14 9 12 24 21 35 21 24 0 25 -30 0 -37 -19 -5 -58 -73 -41 -73 6 0
13 8 16 18 16 48 16 48 24 27 8 -19 9 -19 9 3 1 12 6 22 12 22 6 0 8 -8 5 -17
-3 -10 -8 -45 -12 -78 -3 -33 -12 -72 -20 -87 -8 -15 -14 -40 -14 -55 l0 -28
19 30 c10 17 21 58 25 90 4 33 12 77 19 98 9 31 8 40 -4 49 -11 7 -11 11 -1
15 6 2 12 9 12 14 0 6 -4 8 -9 4 -6 -3 -15 3 -21 14 -6 12 -6 22 0 26 5 3 6
13 3 23 -6 15 -5 15 10 3 15 -12 17 -11 17 3 0 18 8 20 29 7 8 -5 11 -16 8
-26 -4 -9 0 -32 8 -52 18 -43 18 -43 3 -43 -10 0 -12 -18 -8 -72 6 -83 25
-119 64 -122 18 -1 26 -7 26 -18 0 -10 -5 -18 -11 -18 -7 0 -9 -9 -6 -21 4
-16 -4 -32 -33 -60 -21 -21 -35 -41 -31 -44 15 -9 -2 -58 -28 -81 -14 -13 -20
-24 -13 -24 7 0 15 7 18 15 7 16 39 20 48 6 3 -5 15 -7 25 -4 19 5 19 4 3 -46
-14 -41 -18 -46 -20 -25 -2 14 2 32 9 40 9 11 8 14 -4 14 -8 0 -17 -10 -20
-23 -3 -12 -12 -48 -21 -79 -8 -32 -10 -58 -5 -58 5 0 9 -5 9 -11 0 -5 -5 -7
-11 -3 -7 4 -9 -2 -7 -17 2 -13 9 -23 16 -21 17 3 15 -28 -3 -34 -8 -4 -15
-10 -15 -16 0 -5 5 -6 11 -2 7 4 9 0 5 -14 -4 -11 -2 -23 4 -27 6 -3 8 -11 4
-16 -3 -5 -11 -6 -17 -2 -9 5 -9 3 -1 -8 14 -17 11 -94 -5 -113 -14 -17 -51
-28 -51 -15 0 5 5 9 10 9 6 0 10 5 10 10 0 6 -8 10 -17 8 -12 -2 -18 4 -19 17
-2 48 -3 49 -24 30 -11 -10 -20 -28 -20 -41 0 -13 -4 -26 -10 -29 -19 -12 -10
33 15 69 14 20 27 56 30 79 8 70 12 91 24 121 9 23 9 31 -3 40 -18 13 -22 35
-11 59 4 10 5 20 2 23 -9 9 -48 -7 -42 -17 4 -5 -1 -9 -9 -9 -20 0 -20 -3 3
-46 19 -34 19 -38 3 -73 -9 -20 -23 -42 -29 -49 -14 -15 -15 -25 -4 -62 7 -23
9 -21 18 20 l11 45 -1 -49 c-1 -31 -6 -50 -15 -54 -11 -4 -11 -6 0 -13 10 -7
10 -9 1 -9 -7 0 -13 -7 -13 -16 0 -8 -4 -12 -10 -9 -6 3 -10 1 -10 -5 0 -6
-12 -16 -26 -22 -17 -8 -24 -18 -21 -30 3 -10 1 -21 -4 -24 -14 -8 -11 -44 4
-44 14 0 31 27 42 68 9 30 27 28 19 -3 -5 -21 -3 -25 15 -25 16 0 27 -12 41
-46 26 -59 25 -78 -3 -97 -12 -9 -17 -16 -10 -16 6 -1 15 4 18 9 3 6 11 10 16
10 6 0 7 -4 4 -10 -8 -13 8 -13 22 1 13 13 26 -60 17 -96 -4 -17 -2 -25 7 -26
8 0 3 -4 -9 -10 -33 -13 -41 -4 -36 39 l5 37 -16 -36 c-13 -30 -20 -35 -41
-31 -18 3 -23 9 -19 23 4 12 -2 23 -20 35 -14 9 -25 22 -25 29 0 6 -11 17 -25
23 -23 11 -25 10 -25 -15 0 -24 -2 -25 -36 -20 -30 5 -35 3 -30 -10 4 -9 1
-20 -6 -25 -10 -6 -10 -8 -1 -8 8 0 11 -10 7 -29 -4 -20 -2 -30 10 -34 9 -4
21 -18 26 -32 8 -21 5 -35 -15 -71 -14 -25 -23 -49 -20 -54 3 -5 1 -11 -5 -15
-5 -3 -10 -12 -10 -18 0 -8 3 -7 9 2 5 7 14 10 20 7 13 -8 15 -52 3 -60 -5 -3
-7 -19 -4 -36 5 -37 -11 -59 -41 -54 -20 4 -21 4 -2 -5 11 -4 23 -7 28 -4 9 5
9 -11 0 -21 -4 -3 -8 -14 -9 -24 -2 -9 -8 -18 -13 -20 -14 -5 -14 -32 0 -32 6
0 8 -7 5 -16 -4 -10 -1 -14 6 -12 7 3 14 13 16 24 2 10 6 26 9 34 4 8 8 28 10
43 1 15 7 36 12 46 6 10 7 28 4 40 -3 12 -1 32 5 44 22 44 31 102 23 140 -11
44 -4 77 15 77 17 0 18 -22 3 -37 -9 -9 -8 -16 4 -27 21 -21 25 -20 20 7 -3
16 2 25 19 32 15 6 24 20 26 38 3 21 8 27 19 23 8 -3 17 -6 21 -6 3 0 -4 -11
-17 -23 -17 -19 -20 -29 -12 -48 9 -21 10 -22 11 -4 1 15 4 13 12 -10 8 -21 8
-30 -1 -33 -17 -6 -13 -42 4 -42 8 0 15 7 15 15 0 8 8 15 18 15 12 0 14 -2 4
-8 -7 -5 -14 -30 -15 -55 -2 -47 -12 -57 -36 -35 -11 11 -12 9 -6 -10 4 -15 2
-24 -10 -28 -12 -5 -13 -9 -3 -21 9 -11 9 -16 -3 -24 -10 -6 -15 -3 -17 13 -3
18 -8 14 -29 -21 -14 -25 -29 -39 -36 -34 -8 5 -8 8 1 11 7 2 12 15 12 28 0
13 5 24 10 24 6 0 10 7 10 15 0 7 6 18 14 22 8 4 16 17 18 28 2 12 10 19 21
17 11 -2 17 4 17 18 0 24 -6 25 -27 5 -8 -8 -19 -12 -25 -9 -6 4 -5 10 3 15
12 8 11 11 -1 19 -17 11 -36 -13 -24 -32 4 -7 3 -8 -5 -4 -15 10 -27 -22 -12
-37 16 -16 13 -28 -7 -25 -14 2 -17 -5 -18 -42 -1 -50 10 -72 32 -63 20 8 18
-21 -6 -59 -11 -18 -20 -29 -20 -24 0 5 -7 3 -15 -4 -9 -7 -15 -22 -14 -34 4
-42 -1 -55 -23 -58 -12 -2 -29 -18 -41 -38 -24 -45 -42 -63 -64 -65 -41 -3
-94 -28 -116 -55 -13 -15 -42 -37 -63 -48 -67 -35 -77 -46 -69 -73 8 -23 8
-23 15 -4 7 19 8 18 20 -8 20 -41 35 -34 31 13 -1 11 1 10 9 -3 15 -24 30 -12
31 26 1 18 3 24 6 14 7 -26 27 -15 34 19 4 16 7 23 8 15 2 -22 15 -3 26 37 6
19 16 37 23 40 9 3 10 -3 2 -22 -7 -20 -6 -27 8 -35 16 -10 16 -10 0 -11 -18
0 -25 -24 -10 -33 4 -2 1 -2 -6 -1 -20 5 -38 -42 -22 -61 16 -20 29 -19 47 3
11 12 10 9 -1 -10 -20 -35 -20 -50 0 -46 20 4 59 71 44 76 -5 2 -10 10 -10 18
0 8 -6 11 -16 7 -14 -5 -14 -3 -2 18 7 13 21 30 31 37 9 7 17 22 17 33 0 32
17 56 45 63 14 4 30 17 35 31 6 15 15 23 24 19 19 -7 30 14 16 30 -8 11 -8 16
2 20 10 5 10 7 1 12 -7 3 -13 10 -13 15 0 6 4 8 9 5 11 -7 50 35 54 59 1 11
17 36 35 55 18 19 32 38 32 43 0 5 9 20 20 34 11 14 20 20 20 14 0 -19 -31
-75 -46 -84 -20 -12 -17 -23 6 -24 12 -1 20 5 21 15 0 11 2 12 6 4 3 -7 -2
-24 -11 -37 -9 -14 -12 -26 -6 -30 14 -9 50 55 51 90 0 17 4 39 9 50 8 19 9
19 9 -2 1 -16 6 -21 16 -17 8 4 15 1 15 -5 0 -7 -6 -14 -13 -17 -7 -2 -13 -20
-13 -39 0 -22 -7 -41 -21 -52 -11 -10 -23 -28 -27 -41 -4 -12 -12 -20 -17 -17
-5 4 -9 -3 -9 -15 0 -14 -5 -20 -17 -18 -12 2 -19 -6 -24 -27 -6 -26 -7 -27
-8 -6 -1 24 -1 24 -15 5 -13 -17 -13 -20 5 -28 10 -5 19 -14 19 -19 0 -6 -3
-7 -7 -4 -16 17 -37 -41 -38 -103 0 -58 -2 -65 -20 -65 -14 0 -20 -7 -20 -22
0 -13 -6 -28 -13 -35 -7 -7 -12 -20 -12 -29 0 -10 -12 -21 -27 -27 -28 -9 -28
-9 -5 -16 15 -5 27 -2 38 8 8 9 24 16 34 16 23 0 37 49 18 61 -10 7 -9 9 5 9
11 0 17 8 17 24 0 14 5 28 10 31 6 3 10 -3 10 -15 0 -12 5 -31 11 -42 6 -12 7
-18 1 -14 -12 7 -22 -17 -22 -52 1 -25 2 -26 14 -9 13 16 14 14 11 -20 -3 -55
-33 -133 -58 -154 -12 -10 -17 -18 -10 -19 6 0 13 4 15 8 2 5 15 12 30 16 23
5 26 3 23 -15 -2 -11 -15 -32 -28 -45 -24 -24 -25 -24 -82 -9 -32 8 -62 12
-66 9 -14 -8 -11 40 3 54 9 9 7 12 -9 12 -12 0 -23 5 -25 12 -8 23 -30 -4 -23
-29 3 -14 2 -22 -2 -20 -4 3 -9 -24 -10 -60 -1 -52 -6 -69 -22 -85 -12 -10
-21 -23 -21 -27 0 -5 -8 -7 -19 -4 -14 3 -20 -2 -26 -24 -6 -24 -8 -26 -18
-12 -10 14 -14 14 -25 3 -6 -7 -12 -20 -12 -29 0 -9 -9 -15 -24 -15 -21 0 -25
-5 -28 -37 -2 -29 -7 -37 -19 -35 -18 2 -29 -25 -28 -68 0 -22 2 -21 16 11 9
20 26 40 37 45 12 5 24 22 27 39 4 17 7 22 8 13 1 -23 6 -23 49 4 64 39 142
117 142 140 0 9 4 19 9 22 5 4 7 -3 4 -14 -4 -13 0 -20 9 -20 20 0 78 62 79
85 1 12 4 9 8 -9 8 -38 48 -45 57 -10 3 12 12 25 21 28 8 3 11 11 7 17 -4 8
-3 9 4 5 8 -5 8 -15 1 -33 -7 -19 -6 -35 2 -56 l12 -29 18 23 c23 30 25 12 2
-20 -15 -22 -17 -23 -29 -6 -7 10 -20 15 -29 12 -11 -5 -15 -23 -16 -74 0 -72
-12 -159 -22 -169 -3 -4 -14 -3 -24 1 -10 5 -22 7 -28 5 -5 -2 -23 -4 -40 -6
-16 -1 -31 -7 -33 -12 -5 -17 -36 -48 -54 -55 -12 -4 -18 -17 -18 -40 0 -30
-4 -36 -40 -50 -32 -12 -40 -20 -40 -41 0 -14 -9 -31 -20 -39 -18 -13 -20 -20
-12 -55 7 -29 6 -39 -2 -36 -7 3 -11 -10 -11 -36 0 -23 -6 -44 -12 -48 -14 -9
-28 -97 -17 -114 5 -7 7 -23 5 -35 -2 -19 2 -23 22 -23 21 0 24 4 21 23 l-5
22 12 -22 c11 -22 19 -23 111 -23 98 0 98 0 98 25 0 14 5 25 10 25 6 0 8 -11
4 -25 -6 -23 -4 -25 29 -25 19 0 38 6 40 13 4 9 6 9 6 0 2 -24 111 -5 111 19
0 5 4 7 10 3 5 -3 7 -12 3 -20 -4 -11 3 -15 27 -15 17 0 29 4 26 9 -4 5 6 14
21 19 22 8 24 11 8 11 -11 1 -27 6 -35 12 -11 7 -5 9 25 7 33 -2 40 0 43 17 2
11 9 27 16 35 14 17 36 67 36 80 0 6 -7 10 -15 10 -12 0 -13 4 -2 28 6 15 19
32 27 39 13 10 11 12 -12 18 -22 6 -26 11 -19 24 4 9 6 22 4 29 -3 7 4 12 16
12 11 0 23 5 27 12 5 8 2 9 -11 4 -14 -5 -15 -4 -7 7 6 7 14 32 18 55 6 36 3
45 -16 62 -16 14 -20 25 -15 37 8 17 8 16 13 -2 2 -11 13 -30 24 -41 18 -20
19 -33 15 -124 -3 -56 -9 -106 -15 -112 -6 -6 -8 -24 -5 -40 6 -28 -22 -108
-37 -108 -5 0 -11 -11 -14 -26 -4 -14 -22 -34 -41 -46 -19 -11 -35 -22 -35
-24 0 -2 20 -4 45 -4 42 0 46 2 59 35 8 19 20 35 27 35 7 0 9 9 5 25 -12 46
37 122 89 135 17 5 13 10 -23 30 -43 24 -43 25 -37 66 6 41 12 114 19 229 3
60 23 118 36 110 4 -3 3 -26 -2 -52 -10 -55 -17 -129 -22 -223 l-3 -65 16 35
c9 19 20 38 25 41 4 4 2 9 -5 11 -16 5 -3 28 17 28 8 0 14 -9 14 -21 0 -11 4
-17 10 -14 5 3 10 2 10 -4 0 -5 -4 -13 -10 -16 -15 -9 -12 -25 3 -19 11 4 12
-6 7 -45 -4 -31 -2 -55 4 -61 7 -7 4 -12 -12 -16 -12 -4 -22 -12 -22 -20 0 -7
-11 -16 -25 -20 -33 -8 -70 -60 -67 -94 1 -17 -7 -37 -22 -53 -34 -37 -15 -43
23 -8 24 23 30 36 29 66 -1 35 19 65 43 65 11 0 23 -86 14 -100 -4 -6 -1 -18
7 -27 7 -9 12 -19 12 -22 -6 -29 12 -31 367 -31 300 0 359 2 359 14 0 15 29
30 39 20 3 -3 -3 -12 -13 -20 -17 -12 198 -14 1592 -14 1605 0 1612 0 1612 20
0 11 -4 20 -10 20 -15 0 -5 171 11 181 9 5 13 29 13 73 -1 54 2 65 18 69 22 6
23 35 3 61 -16 22 -21 96 -6 96 5 0 12 -6 15 -12 3 -7 2 1 -2 17 -3 17 -6 41
-6 55 4 85 14 182 25 224 10 42 10 51 -3 60 -11 9 -13 24 -8 68 3 31 3 55 -1
52 -7 -4 -18 121 -18 204 0 24 -5 59 -11 77 -9 26 -7 42 7 81 14 39 16 62 10
109 -4 33 -12 94 -17 135 -5 41 -8 138 -6 215 17 535 17 665 1 732 -12 51 -17
135 -19 338 -2 149 -8 331 -14 405 -6 74 -14 216 -18 315 -4 99 -9 203 -11
230 -2 28 -3 118 -2 200 1 83 2 202 2 265 1 63 -1 135 -3 160 -2 25 2 133 9
240 9 142 10 221 2 290 -13 118 -26 200 -35 221 -4 9 -9 61 -11 115 -2 55 -8
135 -14 179 -8 62 -7 102 4 177 11 71 12 104 4 125 -7 20 -7 51 1 108 8 58 8
108 1 181 -6 56 -8 131 -4 166 8 88 -4 178 -23 178 -27 0 -73 -43 -80 -74 -3
-17 -13 -39 -22 -49 -15 -17 -17 -16 -44 13 -27 30 -36 73 -20 95 4 6 25 16
47 24 21 8 46 22 55 33 8 10 28 20 44 21 24 2 31 9 38 32 5 17 6 46 3 65 -3
19 -7 86 -10 148 -2 62 -9 121 -15 132 -5 10 -10 29 -11 42 l0 23 -9 -22 c-10
-24 -40 -22 -40 2 0 7 -11 20 -25 29 -14 9 -25 25 -25 36 0 22 15 27 24 8 5
-10 7 -10 12 0 3 6 10 10 14 7 5 -3 2 11 -6 31 -8 19 -10 33 -5 29 6 -3 13 7
16 22 4 15 11 38 16 51 5 13 9 31 9 40 0 15 -2 15 -11 2 -8 -12 -9 -10 -5 10
3 14 6 34 7 45 l0 20 9 -20 c6 -13 9 15 9 81 1 72 -3 110 -14 130 -10 19 -13
43 -9 70 3 22 1 58 -5 80 -26 100 -31 335 -12 569 7 83 13 161 14 175 2 46
-15 180 -23 180 -4 0 -10 9 -13 20 -4 17 -11 19 -31 14 -15 -3 -26 -2 -26 4 0
7 -13 6 -40 0 -36 -9 -56 -28 -29 -28 5 0 8 -4 4 -9 -10 -17 -59 8 -77 39 -10
18 -25 30 -38 30 -12 0 -29 4 -38 8 -9 5 -25 7 -34 5z m-263 -1092 c28 -17 30
-22 27 -67 -2 -35 -9 -54 -23 -64 -11 -9 -26 -27 -32 -40 -12 -24 -124 -92
-142 -86 -5 1 -10 20 -10 42 0 34 -3 39 -22 37 -19 -2 -23 2 -23 23 0 23 2 25
15 14 24 -20 44 3 27 30 -10 17 -9 22 12 35 13 9 30 13 37 10 9 -3 21 6 32 24
23 39 45 61 60 60 7 0 26 -8 42 -18z m-516 -173 c9 -24 -7 -58 -18 -39 -4 5
-23 -5 -43 -23 -21 -19 -34 -36 -31 -40 3 -3 -1 -6 -10 -6 -9 0 -17 -6 -17
-13 0 -7 -11 -24 -25 -37 -14 -14 -31 -31 -38 -38 -6 -8 -23 -26 -37 -40 -16
-19 -24 -39 -25 -65 0 -29 -5 -39 -20 -43 -15 -4 -20 -14 -22 -39 -1 -18 -11
-43 -22 -54 -24 -24 -35 -13 -22 21 22 56 51 160 46 168 -3 4 2 13 10 20 8 7
15 20 16 29 0 10 2 11 6 4 11 -29 21 -9 28 55 4 38 10 73 13 78 16 21 63 37
95 31 35 -5 72 11 90 40 11 18 16 16 26 -9z m221 -19 c0 -18 44 -48 63 -43 23
7 24 -34 1 -51 -13 -9 -15 -20 -10 -48 7 -39 36 -53 36 -18 0 21 25 51 41 51
6 0 7 -14 3 -34 l-6 -34 35 16 c19 9 33 20 31 23 -6 10 18 27 51 35 17 3 38
13 47 22 10 8 41 16 73 17 66 2 75 -12 51 -83 -9 -26 -24 -78 -34 -117 -14
-58 -21 -71 -40 -73 -22 -3 -27 -17 -23 -68 1 -12 -5 -24 -13 -27 -9 -4 -16
-13 -16 -22 0 -8 -6 -15 -14 -15 -8 0 -16 -7 -20 -15 -3 -8 -14 -15 -25 -15
-11 0 -23 -5 -27 -11 -3 -6 -18 -9 -33 -6 -14 3 -34 1 -43 -4 -13 -7 -16 -6
-12 5 3 8 15 16 26 19 24 7 19 33 -6 31 -11 -1 -19 8 -23 27 -3 16 -12 29 -19
29 -24 0 -15 15 15 27 17 6 35 7 42 2 8 -5 10 -9 5 -9 -6 0 -5 -5 1 -11 13
-13 31 1 52 39 16 30 6 42 -27 36 -32 -6 -82 7 -82 21 0 6 5 10 12 10 6 0 18
15 25 33 8 19 9 32 3 32 -5 0 -10 7 -10 15 0 8 -9 15 -20 15 -11 0 -20 -4 -20
-10 0 -18 -2 -25 -16 -59 -8 -18 -14 -40 -14 -48 0 -17 -40 -73 -53 -73 -5 0
-20 -11 -33 -25 -26 -28 -39 -31 -48 -12 -3 6 -4 0 -1 -15 3 -16 1 -28 -5 -28
-5 0 -10 -9 -10 -20 0 -24 8 -25 38 -4 17 11 26 13 36 5 7 -6 17 -7 22 -3 5 4
5 3 1 -3 -4 -5 -22 -14 -39 -20 -22 -7 -36 -21 -46 -45 l-14 -35 24 22 c12 12
34 23 48 25 14 2 31 8 39 13 10 5 16 4 19 -4 3 -8 8 -7 17 5 8 12 18 15 31 10
18 -7 17 -9 -5 -17 -22 -9 -23 -11 -7 -22 9 -7 19 -28 21 -47 3 -20 13 -41 25
-49 11 -7 20 -22 20 -33 0 -15 -5 -18 -22 -13 -17 4 -19 4 -9 -3 11 -8 9 -11
-8 -17 -11 -3 -21 -11 -21 -16 0 -12 27 -12 35 1 3 6 10 10 15 10 15 0 40 -31
40 -48 0 -13 -2 -14 -9 -3 -6 9 -11 10 -15 2 -4 -6 -16 -11 -27 -11 -16 0 -19
-7 -19 -40 0 -39 0 -39 33 -34 31 6 31 6 12 -9 -24 -20 -51 -22 -58 -4 -3 6
-6 -3 -6 -21 -1 -29 -4 -33 -23 -30 -14 2 -24 12 -28 28 -4 18 -13 26 -33 28
-16 2 -27 9 -27 19 0 13 2 14 17 2 15 -13 16 -12 8 6 -4 11 -8 33 -7 48 1 27
-18 55 -54 76 -17 9 -18 10 -1 11 28 0 16 30 -15 36 -5 1 -11 2 -15 3 -5 1 -2
5 6 10 18 11 7 42 -13 35 -22 -9 -30 33 -12 61 15 23 15 26 -4 45 -25 25 -25
24 5 56 27 29 25 44 -6 44 -27 0 -26 46 1 53 12 3 20 14 20 27 0 20 -4 22 -31
16 l-32 -6 6 63 c5 50 14 75 40 116 20 29 37 47 39 39 3 -8 13 -4 31 14 20 21
27 37 27 68 0 22 5 40 10 40 6 0 10 -5 10 -11z m498 -452 c2 -16 -2 -35 -8
-42 -8 -9 -10 -28 -6 -50 4 -19 2 -44 -4 -55 -9 -16 -7 -26 8 -45 21 -26 18
-52 -12 -150 -12 -38 -57 -78 -71 -63 -3 3 -6 39 -6 80 0 74 0 75 -25 70 -34
-6 -64 30 -64 77 0 36 47 137 79 172 21 22 60 39 86 36 14 -1 21 -11 23 -30z
m268 -59 c-12 -76 -26 -118 -47 -137 -12 -11 -20 -29 -18 -43 2 -12 -1 -33 -5
-46 -5 -15 -2 -31 8 -47 21 -32 20 -48 -3 -69 -16 -15 -22 -15 -40 -4 -12 7
-21 17 -21 21 0 5 -6 15 -14 22 -8 8 -14 37 -15 70 -1 44 3 59 19 72 21 19 26
39 10 45 -15 5 -1 43 21 56 16 10 19 9 19 -4 0 -9 6 -14 13 -11 6 2 12 10 12
18 0 8 4 17 10 21 6 5 5 12 -3 20 -16 16 -15 28 3 28 9 0 18 7 21 15 4 8 13
15 21 15 13 0 14 -8 9 -42z m-1514 -120 c-18 -18 -15 -28 9 -28 18 0 19 -2 9
-15 -10 -12 -10 -19 -2 -27 17 -17 15 -28 -6 -28 -25 0 -31 -7 -25 -31 4 -15
8 -17 19 -8 10 8 21 7 45 -8 l30 -20 -30 -31 c-17 -17 -31 -33 -31 -37 0 -11
-44 -44 -59 -45 -7 0 -11 -6 -8 -14 11 -28 -16 -75 -45 -81 -15 -4 -30 -11
-33 -16 -11 -17 -25 -9 -25 16 0 13 9 32 20 43 22 21 54 102 40 102 -6 0 -10
5 -10 10 0 6 7 10 15 10 8 0 15 5 15 10 0 6 7 10 16 10 11 0 14 4 7 13 -5 6
-8 23 -7 37 1 13 -5 30 -14 36 -11 8 -12 15 -3 32 6 11 8 27 5 35 -3 9 7 20
28 30 39 20 57 22 40 5z m1336 -395 c5 -10 12 -34 16 -54 7 -40 36 -76 36 -45
0 23 17 20 25 -4 4 -14 -3 -32 -24 -59 -17 -21 -31 -44 -31 -50 0 -6 -11 -11
-25 -11 -26 0 -48 -29 -40 -53 3 -7 -1 -20 -10 -27 -14 -11 -17 -10 -22 9 -3
13 -11 20 -19 17 -8 -3 -29 9 -47 27 -19 18 -53 49 -76 69 l-42 36 16 31 c8
17 21 31 29 31 7 0 23 11 36 24 12 14 35 28 50 31 15 3 36 15 46 26 22 24 70
25 82 2z m-350 -95 c-2 -15 3 -24 14 -26 11 -2 18 4 20 19 5 36 28 36 28 0 0
-19 -5 -31 -13 -31 -20 0 -48 -39 -54 -76 -9 -56 -97 -117 -118 -83 -5 7 -13
4 -25 -8 -10 -10 -13 -21 -7 -24 16 -11 -3 -49 -24 -49 -14 0 -26 -15 -43 -53
-14 -29 -34 -61 -45 -71 -13 -11 -21 -32 -21 -50 -1 -35 -24 -74 -35 -57 -9
16 -36 13 -55 -4 -15 -14 -19 -12 -36 20 -15 28 -24 35 -44 33 -14 -2 -30 -9
-36 -17 -10 -12 -13 -11 -18 7 -7 21 -26 31 -26 13 0 -5 -7 -11 -15 -15 -9 -3
-15 0 -15 10 0 8 8 18 17 21 29 11 53 36 53 55 0 10 5 18 11 18 8 0 10 16 6
53 -4 33 -3 47 3 37 5 -8 12 -11 16 -7 4 4 2 13 -4 19 -17 17 -15 38 3 38 11
0 15 11 15 39 0 24 8 48 21 65 23 30 75 60 88 51 5 -3 16 -2 25 1 12 5 14 10
6 19 -13 16 15 35 49 35 12 0 21 5 21 11 0 5 5 7 10 4 6 -3 10 -9 10 -13 0
-15 -60 -73 -70 -67 -5 3 -23 -4 -40 -16 -22 -17 -27 -26 -19 -36 17 -20 2
-46 -22 -40 -48 13 -95 -34 -51 -50 9 -4 20 -11 24 -17 4 -7 15 -3 30 10 13
12 31 24 41 27 9 4 22 18 29 32 12 27 33 33 41 13 8 -24 48 33 43 61 -4 20 2
31 24 49 17 13 30 18 30 12 0 -7 8 -9 20 -5 22 7 27 -9 11 -34 -7 -12 -13 -12
-24 -3 -11 10 -16 7 -25 -14 -16 -34 -15 -36 8 -24 15 8 21 6 30 -10 15 -27
30 -25 30 5 0 17 9 29 29 40 19 9 32 26 37 47 8 35 11 45 13 53 0 3 8 5 17 5
10 0 14 -7 12 -22z m-1392 -70 c-3 -18 -8 -48 -10 -66 -2 -18 -10 -39 -16 -47
-7 -8 -10 -25 -7 -37 7 -27 -15 -57 -55 -77 -15 -8 -26 -19 -25 -25 1 -6 -4
-10 -12 -8 -11 2 -12 0 -3 -11 13 -16 6 -27 -17 -27 -9 0 -28 -11 -43 -25 -27
-25 -48 -32 -48 -16 0 5 9 11 20 14 22 6 18 37 -6 37 -7 0 -20 9 -28 21 -8 12
-19 18 -25 14 -6 -3 -11 -2 -11 4 0 19 35 17 58 -2 13 -12 22 -15 22 -8 0 14
70 57 87 53 7 -2 13 4 13 12 0 8 10 23 23 33 34 27 82 149 70 179 -3 8 0 14 7
14 8 0 10 -10 6 -32z m560 -434 c-4 -19 -20 -49 -36 -67 -26 -30 -27 -35 -14
-57 7 -14 13 -19 14 -12 0 6 7 12 15 12 18 0 18 -4 6 -28 -6 -9 -12 -29 -15
-44 -4 -19 -11 -26 -21 -21 -12 4 -13 8 -4 20 9 10 9 17 1 25 -8 8 -13 6 -17
-8 -3 -10 -16 -39 -28 -63 -12 -24 -23 -56 -25 -70 -2 -14 -12 -35 -22 -45
-17 -18 -20 -18 -43 -3 -19 12 -23 22 -19 44 7 40 18 51 48 45 24 -4 25 -3 19
29 -5 32 -7 83 -5 119 1 8 -3 33 -9 55 l-10 40 18 -24 18 -24 23 26 c12 14 35
31 50 37 16 7 34 25 41 43 15 36 24 20 15 -29z m-1061 -4 c-4 -23 -2 -41 4
-45 7 -4 11 7 11 30 0 23 4 34 11 30 6 -4 17 1 24 11 8 11 15 14 15 7 0 -6 14
-15 32 -18 28 -7 30 -9 15 -20 -9 -7 -17 -15 -17 -19 0 -4 -19 -27 -43 -52
-49 -50 -89 -146 -69 -166 6 -6 8 -24 5 -39 -3 -16 0 -35 7 -44 7 -8 8 -20 4
-27 -9 -13 -10 -16 -13 -40 -5 -31 -17 29 -16 83 0 41 -4 59 -12 59 -14 0 -19
86 -5 92 4 2 27 25 51 51 36 39 40 46 20 39 -13 -5 -44 -28 -68 -51 -33 -31
-49 -40 -65 -35 -31 10 -43 22 -48 49 -6 31 14 49 47 41 14 -4 25 -2 25 4 0 5
-7 10 -15 10 -8 0 -15 4 -15 9 0 5 9 7 20 4 14 -4 20 0 20 11 0 22 13 20 28
-4 19 -31 31 -15 27 35 -3 36 -1 43 11 38 12 -4 14 -15 9 -43z m725 -199 c0
-6 -4 -12 -10 -16 -5 -3 -7 -12 -4 -20 3 -8 -1 -24 -10 -37 -9 -12 -16 -29
-16 -38 0 -20 37 -23 44 -4 7 17 36 7 36 -12 0 -8 6 -17 13 -20 9 -3 12 -16 9
-34 -5 -37 -19 -39 -32 -4 -12 32 -30 22 -30 -16 0 -15 -9 -49 -20 -75 -11
-26 -20 -57 -20 -70 0 -12 -7 -25 -15 -29 -19 -7 -19 -1 5 74 11 34 19 72 19
84 -2 18 -2 18 -6 -3 -6 -33 -52 -91 -71 -91 -8 0 -24 8 -35 17 -18 17 -19 17
-33 -2 -13 -18 -14 -18 -14 7 0 15 6 29 13 31 9 4 8 8 -3 16 -8 6 -10 11 -4
11 7 0 15 7 18 16 7 19 -17 57 -30 46 -5 -4 2 5 15 21 25 27 51 36 51 17 0 -6
-9 -14 -20 -18 -21 -8 -21 -8 -2 -30 l20 -22 21 40 c25 48 25 50 6 50 -14 0
-14 3 0 30 9 17 20 31 25 31 6 1 15 3 20 4 6 1 15 3 21 4 5 0 9 9 8 19 -1 9
-1 20 0 25 2 10 31 9 31 -2z m-424 -316 c-9 -25 -16 -60 -15 -78 l0 -32 20 43
c22 51 47 53 62 7 6 -16 18 -41 28 -54 14 -17 16 -28 8 -42 -5 -10 -13 -18
-17 -17 -17 4 -62 -27 -62 -43 0 -9 -6 -19 -12 -22 -8 -3 -3 -9 11 -14 19 -8
21 -11 9 -16 -9 -3 -25 3 -36 13 -12 12 -23 15 -29 9 -5 -5 -23 -11 -40 -13
-17 -3 -42 -10 -54 -17 -22 -11 -22 -13 -4 -19 14 -5 16 -8 6 -15 -9 -5 -17
-2 -23 9 -5 9 -12 15 -16 12 -4 -2 -7 21 -7 51 0 48 -3 57 -27 75 -16 11 -28
28 -28 39 0 24 20 25 20 2 1 -16 2 -16 13 -3 7 8 21 16 32 18 20 3 20 2 1 -13
-19 -14 -19 -16 -2 -28 9 -7 16 -19 14 -27 -5 -24 39 -24 52 -1 9 17 8 21 -5
21 -8 0 -15 7 -15 15 0 8 5 15 11 15 18 0 40 29 50 65 6 20 16 35 24 35 8 0
15 5 15 10 0 6 -14 10 -31 10 -27 0 -30 2 -19 15 7 8 23 15 35 15 16 0 25 8
31 28 5 19 8 22 11 10 2 -9 -3 -37 -11 -63z m-374 -666 c4 -49 2 -53 -31 -64
-19 -6 -37 -18 -39 -26 -2 -9 -1 -10 5 -3 4 6 16 13 26 17 14 5 16 2 13 -16
-3 -12 -10 -47 -16 -77 -6 -30 -20 -64 -31 -76 -17 -18 -19 -25 -8 -42 11 -17
15 -18 38 -6 17 9 29 10 36 3 6 -6 6 -12 0 -17 -6 -4 -19 -24 -29 -45 -11 -21
-28 -43 -39 -49 -13 -7 -17 -16 -13 -32 4 -16 -2 -30 -19 -46 -14 -13 -25 -33
-25 -44 0 -12 -9 -32 -20 -46 l-20 -25 0 23 c0 13 6 36 14 50 8 15 24 54 37
87 12 33 29 68 37 78 12 13 13 20 4 29 -8 8 -20 1 -45 -26 -37 -39 -86 -52
-68 -17 8 15 7 20 -5 25 -11 4 -14 15 -10 38 2 18 5 35 6 38 1 3 3 14 4 25 0
12 9 21 23 23 33 5 47 27 29 45 -13 13 -12 17 10 38 13 12 23 32 23 43 -4 41
1 67 11 61 7 -4 7 -12 0 -25 -16 -30 -12 -32 20 -8 l30 22 -27 24 -28 23 38
-6 c35 -6 53 8 25 18 -7 2 -1 4 15 4 19 0 27 -5 29 -18z m-1101 -281 c17 -64
27 -73 56 -47 13 13 23 34 23 51 0 32 19 38 27 8 3 -11 9 -17 14 -14 5 3 9 0
9 -5 0 -19 17 -12 28 12 10 21 11 21 11 1 1 -26 11 -36 25 -25 6 5 28 18 48
29 31 18 37 19 42 6 3 -8 1 -12 -4 -9 -5 3 -15 -3 -22 -15 -7 -11 -18 -20 -25
-20 -6 0 -17 -16 -23 -35 -6 -19 -16 -33 -21 -29 -5 3 -5 13 2 25 16 31 4 34
-19 5 -11 -15 -27 -26 -35 -26 -12 0 -10 6 8 26 32 35 31 41 -5 41 -24 0 -32
-6 -36 -24 -4 -12 -10 -20 -15 -17 -13 8 -66 -39 -61 -54 2 -7 -6 -29 -18 -49
-11 -20 -18 -43 -15 -51 3 -8 -7 -26 -24 -42 -16 -15 -31 -34 -33 -41 -3 -9
-6 -10 -11 -2 -4 7 5 24 19 38 24 24 25 29 14 50 -11 20 -10 26 2 39 8 8 18
33 22 55 3 23 11 41 16 41 5 0 7 7 4 15 -4 8 -13 15 -21 15 -9 0 -13 -6 -9
-15 9 -24 -4 -48 -19 -35 -9 7 -16 6 -23 -3 -7 -8 -24 -12 -40 -9 l-29 4 23
24 c16 15 30 21 42 17 15 -6 14 -3 -3 17 l-20 23 21 -5 c18 -5 25 1 37 33 9
22 18 39 21 39 3 0 10 -19 17 -42z m805 -105 c4 -16 11 -33 16 -39 23 -30 26
-158 4 -199 -9 -16 -16 -42 -16 -57 0 -15 -4 -29 -9 -32 -4 -3 -14 -27 -21
-53 -17 -62 -21 -68 -32 -52 -7 11 -8 9 -4 -5 4 -10 -4 -38 -18 -65 -13 -25
-33 -67 -45 -92 -13 -25 -45 -65 -72 -89 -27 -23 -49 -49 -49 -58 0 -8 -3 -13
-6 -9 -4 3 -22 0 -41 -8 -57 -24 -62 -17 -10 15 26 17 47 32 47 34 0 3 -15 0
-32 -5 -43 -12 -65 -4 -64 24 1 16 -6 23 -22 25 -30 5 -23 26 11 30 17 2 30
13 39 33 7 16 16 29 20 29 11 0 10 28 -3 52 l-11 20 -22 -21 c-12 -12 -26 -18
-29 -14 -4 3 -7 -1 -7 -10 0 -10 -5 -17 -11 -17 -6 0 -9 -9 -6 -20 3 -11 1
-18 -4 -15 -4 3 -19 -12 -33 -33 -24 -38 -65 -72 -87 -72 -6 0 7 18 29 40 64
64 177 308 157 340 -10 16 -64 -28 -71 -56 -3 -13 -10 -22 -14 -19 -4 3 -8
-11 -7 -31 1 -24 -5 -41 -16 -49 -9 -7 -17 -19 -17 -28 0 -15 -60 -70 -68 -62
-3 2 8 17 24 33 16 16 40 60 53 98 13 37 34 77 46 88 27 26 45 59 45 83 0 12
8 18 26 19 l26 2 -22 -23 c-12 -13 -19 -28 -15 -34 9 -16 25 -13 25 4 0 8 4
15 9 15 13 0 20 -37 8 -49 -5 -5 -11 -25 -12 -43 -1 -18 -12 -48 -23 -67 -23
-38 -21 -51 8 -51 25 0 36 20 19 31 -12 8 -11 11 4 20 9 5 17 17 17 25 0 24
39 94 57 101 13 5 13 7 -2 15 -15 9 -15 11 0 29 11 12 15 27 11 43 -5 19 2 31
31 60 21 20 41 36 46 36 5 0 7 7 4 15 -4 8 -2 17 3 20 6 4 10 12 10 18 0 9 -2
9 -8 0 -4 -7 -13 -9 -19 -5 -8 5 -9 13 -3 22 6 8 10 11 10 5 0 -7 3 -7 8 0 11
16 65 52 90 59 12 4 22 12 22 17 0 21 20 7 26 -18z m337 10 c-7 -3 -13 -12
-13 -20 0 -9 6 -13 14 -10 8 3 20 0 26 -8 6 -8 19 -11 28 -9 15 5 16 4 1 -8
-11 -9 -14 -24 -11 -49 2 -24 -1 -41 -12 -52 -9 -8 -16 -20 -16 -25 0 -5 -12
-17 -26 -27 -31 -20 -43 -12 -53 36 -10 48 -2 81 20 86 16 4 17 8 8 20 -9 10
-9 17 -1 25 7 7 12 20 12 29 0 17 20 31 30 21 3 -2 -1 -7 -7 -9z m-45 -401
c-2 -26 -7 -53 -12 -60 -4 -7 -5 -20 -2 -29 4 -9 -1 -24 -10 -34 -18 -20 -44
-25 -44 -9 0 6 -5 10 -10 10 -16 0 -8 -34 9 -41 12 -4 10 -10 -7 -27 -28 -28
-42 -28 -35 -1 5 17 2 20 -18 17 -18 -2 -23 -9 -24 -33 0 -22 -5 -31 -20 -33
-11 -2 -24 -8 -29 -13 -12 -11 14 -41 31 -35 7 3 13 1 13 -4 0 -5 -10 -10 -22
-12 -24 -3 -30 -28 -16 -60 5 -9 3 -18 -3 -20 -5 -2 -11 -10 -12 -18 -2 -8 -6
-21 -10 -27 -5 -7 -5 -18 -2 -24 5 -7 -4 -9 -26 -7 -39 5 -62 33 -39 49 13 9
13 10 0 8 -30 -3 -40 1 -40 17 0 13 7 15 30 11 16 -4 32 -2 36 4 4 6 11 6 20
-2 8 -6 17 -9 20 -7 3 3 -9 16 -25 28 -28 19 -33 20 -53 6 -16 -11 -37 -14
-77 -10 -40 4 -63 1 -81 -10 -14 -9 -32 -18 -42 -22 -9 -3 -18 -16 -21 -27 -2
-12 -8 -30 -12 -39 -5 -13 -3 -18 9 -18 9 0 16 5 16 10 0 6 18 10 44 9 40 -2
43 -4 44 -32 1 -35 10 -46 22 -27 5 8 12 11 15 8 4 -4 -2 -17 -14 -29 -12 -13
-21 -18 -21 -11 0 6 -6 9 -14 6 -22 -8 -30 15 -12 35 16 18 15 19 -19 25 -19
4 -41 3 -48 -1 -6 -4 -16 -8 -22 -8 -5 0 -11 -10 -13 -22 -5 -32 -22 -28 -22
5 0 31 41 132 54 132 5 0 14 7 20 15 9 12 35 20 79 24 5 1 5 7 0 14 -5 8 1 7
17 -3 14 -8 40 -14 58 -12 26 3 32 8 32 27 0 13 5 27 10 30 6 4 10 -5 10 -19
0 -24 2 -25 22 -14 39 22 49 41 31 56 -16 11 -16 12 0 12 9 0 17 4 17 9 0 5 9
11 20 14 11 3 20 9 20 14 0 11 -36 10 -46 0 -10 -9 -34 12 -34 29 0 8 7 14 15
14 8 0 15 -5 15 -11 0 -5 5 -7 11 -3 8 5 6 10 -5 16 -9 5 -16 16 -16 23 0 8
-6 15 -14 15 -8 0 -17 7 -20 16 -5 14 -4 15 9 4 8 -7 15 -8 15 -3 0 14 84 103
97 103 6 0 20 -12 31 -27 19 -26 20 -27 26 -5 4 12 16 22 26 22 28 0 51 11 44
21 -3 5 -2 24 1 41 6 26 9 29 17 14 5 -9 8 -38 6 -64z m-1038 -480 c0 -25 32
-82 42 -76 9 6 6 42 -8 99 -3 12 2 9 12 -9 9 -16 17 -47 18 -70 0 -24 6 -41
13 -41 6 0 15 -3 19 -7 4 -5 16 -8 26 -8 11 0 23 -11 29 -27 8 -22 12 -24 19
-13 8 13 10 13 10 -1 0 -22 -26 -43 -44 -36 -8 3 -17 1 -20 -6 -3 -9 -7 -8
-14 2 -8 11 -13 8 -27 -12 -15 -24 -19 -25 -32 -11 -9 8 -12 18 -9 22 4 3 11
0 15 -7 5 -7 11 -9 13 -5 12 21 16 60 9 73 -7 11 -12 10 -22 -8 -8 -11 -19
-21 -26 -21 -7 0 -13 -9 -13 -19 0 -11 -5 -23 -11 -27 -6 -3 -8 -16 -5 -28 3
-11 1 -27 -3 -35 -11 -17 -32 -5 -29 16 2 9 -3 18 -9 20 -8 3 -13 -4 -13 -15
0 -10 -3 -22 -7 -26 -5 -4 -8 -11 -8 -14 0 -4 -9 -20 -20 -36 -18 -27 -18 -29
-1 -41 27 -20 9 -59 -21 -48 -11 4 -14 3 -9 -6 5 -7 0 -21 -10 -32 -9 -10 -14
-22 -11 -26 4 -3 7 -1 7 5 0 7 7 12 15 12 8 0 15 5 15 11 0 7 11 0 26 -16 29
-32 28 -59 -3 -63 -12 -2 -27 -10 -33 -18 -17 -20 -32 -17 -25 5 4 15 0 20
-25 23 -20 3 -30 0 -30 -9 0 -7 -7 -13 -16 -13 -11 0 -14 6 -9 20 4 12 2 20
-5 20 -6 0 -8 11 -4 28 l6 27 -21 -30 -21 -30 5 40 c2 22 2 32 -1 23 -3 -10
-9 -18 -13 -18 -11 0 17 143 30 151 8 5 8 8 0 13 -7 5 -5 18 6 41 11 24 19 31
24 23 6 -9 10 -8 15 5 3 9 10 17 15 17 10 0 49 37 49 46 0 4 -6 2 -12 -4 -19
-15 -85 -12 -98 4 -9 10 -8 19 4 36 13 18 16 19 16 5 0 -21 16 -22 24 -2 3 8
1 15 -4 15 -16 0 -11 14 16 43 26 28 30 74 6 70 -6 -2 -12 5 -12 16 0 30 49
15 57 -18 3 -14 13 -31 22 -38 13 -10 14 -15 4 -32 -16 -26 -17 -51 -2 -51 6
0 9 9 6 19 -3 12 3 27 15 38 11 10 24 27 29 38 7 19 8 19 8 -1 1 -12 -6 -24
-14 -28 -17 -6 -20 -32 -5 -41 6 -4 17 -1 25 5 12 10 15 9 15 -5 0 -14 4 -13
20 8 31 39 25 84 -8 57 -9 -7 -9 -7 -2 2 15 18 12 58 -4 58 -7 0 -16 12 -19
27 -5 27 -5 27 24 -7 16 -19 29 -41 29 -48z m717 -362 c3 -11 9 -17 14 -15 11
8 29 -29 21 -42 -9 -15 -80 -63 -92 -63 -6 0 -10 12 -10 27 l0 27 -16 -22
c-20 -28 -48 -30 -39 -2 4 12 2 20 -5 20 -7 0 -9 7 -6 16 5 14 1 16 -24 11
-25 -5 -30 -3 -30 12 0 11 -3 21 -7 24 -5 2 -1 2 7 -1 8 -2 34 -7 57 -9 24 -3
40 -9 37 -14 -3 -5 1 -9 8 -9 7 0 21 14 30 30 20 34 47 39 55 10z m-615 -1949
c11 -11 18 -26 15 -34 -3 -8 -1 -20 4 -28 6 -9 9 -10 9 -2 0 7 6 10 14 7 9 -3
19 4 27 17 11 22 12 22 25 4 8 -10 24 -19 36 -20 24 -2 23 -1 19 -83 -1 -15
-9 -26 -20 -29 -12 -3 -17 -11 -14 -19 3 -8 1 -14 -5 -14 -5 0 -12 9 -15 19
-3 13 3 22 20 30 30 14 23 27 -17 33 -22 3 -30 1 -31 -11 0 -10 -4 -8 -9 7 -5
12 -7 29 -3 38 5 13 2 15 -18 9 -13 -4 -27 -13 -32 -21 -4 -7 -22 -22 -40 -33
-19 -11 -34 -27 -34 -36 0 -10 4 -12 12 -5 9 7 14 6 18 -4 3 -8 0 -20 -8 -26
-11 -9 -16 -7 -24 9 -14 25 -14 71 0 71 6 0 8 8 5 18 -3 9 -2 31 3 47 7 25 10
27 16 12 4 -9 5 -26 2 -38 -3 -13 -1 -19 6 -16 15 5 22 57 8 57 -6 0 -11 14
-11 30 0 35 12 38 42 11z"/>
<path d="M3454 3114 c3 -8 -3 -25 -14 -37 -11 -11 -19 -26 -17 -32 2 -5 -8
-33 -23 -62 -15 -29 -25 -55 -22 -58 3 -3 5 -25 4 -48 -1 -23 2 -49 8 -57 7
-11 10 -7 10 20 0 21 10 51 26 73 14 21 23 44 20 52 -2 7 2 16 10 19 9 3 13
10 10 14 -3 5 6 14 19 20 15 7 22 17 19 25 -3 8 2 22 11 31 20 20 10 39 -16
31 -13 -4 -19 -2 -19 9 0 9 -7 16 -16 16 -10 0 -14 -5 -10 -16z"/>
<path d="M3510 8543 c-14 -9 -56 -37 -95 -62 -38 -25 -75 -50 -81 -56 -7 -5
-78 -57 -159 -115 -238 -169 -375 -293 -351 -318 2 -2 21 1 42 7 22 5 61 12
88 16 58 7 74 15 140 67 27 22 66 48 87 58 20 11 48 32 61 48 29 34 58 52 87
52 42 0 70 22 91 74 13 32 47 79 90 125 70 73 84 103 54 115 -21 8 -25 7 -54
-11z"/>
<path d="M4278 8340 c-28 -4 -42 -14 -62 -43 -14 -21 -26 -46 -26 -56 0 -17 4
-17 52 -5 45 12 64 12 121 1 13 -2 17 87 5 98 -9 9 -47 11 -90 5z"/>
<path d="M4649 8258 c-17 -33 -28 -38 -86 -38 -62 0 -101 -13 -110 -37 -4 -10
-15 -29 -25 -42 -17 -22 -17 -26 -3 -33 8 -5 24 -6 35 -3 13 4 20 2 20 -7 0
-8 9 -21 20 -31 16 -13 18 -21 10 -42 -7 -20 -6 -25 5 -25 8 0 15 5 15 10 0 6
15 25 34 42 27 25 34 37 30 58 -4 17 1 33 13 47 17 21 20 21 61 7 41 -14 47
-14 99 8 71 29 83 50 47 83 -23 21 -37 25 -90 25 -55 0 -65 -3 -75 -22z"/>
<path d="M5504 8156 c-3 -8 -1 -24 6 -35 9 -18 14 -19 31 -10 12 6 23 8 26 5
3 -3 -2 -8 -11 -12 -11 -4 -15 -13 -11 -25 5 -14 0 -22 -19 -29 -27 -10 -33
-24 -16 -35 16 -10 12 -35 -5 -35 -9 0 -18 -7 -21 -15 -4 -8 -13 -15 -21 -15
-19 0 -14 -70 7 -87 19 -16 40 -16 40 -2 0 6 11 20 24 30 14 11 26 29 28 42 2
14 11 23 26 25 28 4 28 13 -5 70 -18 31 -23 47 -15 50 13 4 16 49 6 76 -8 20
-63 21 -70 2z"/>
<path d="M4850 8152 c-8 -3 -23 -13 -33 -23 -11 -12 -32 -19 -53 -19 -19 0
-42 -4 -52 -9 -9 -5 -32 -15 -50 -21 -18 -7 -42 -26 -54 -42 -27 -39 -79 -61
-112 -48 -32 12 -84 -21 -108 -70 -12 -23 -29 -39 -50 -46 -22 -7 -35 -20 -41
-40 -16 -50 -27 -57 -77 -50 -42 6 -49 3 -75 -24 -26 -28 -57 -40 -54 -22 3
19 -2 23 -16 12 -18 -15 -10 -30 16 -30 11 0 17 -5 14 -10 -4 -7 -13 -6 -26 1
-15 7 -24 7 -34 -1 -8 -7 -36 -10 -65 -8 -34 2 -50 -1 -50 -9 0 -25 -66 -63
-109 -63 l-41 0 16 26 c20 30 63 54 99 54 20 0 25 5 25 24 0 13 7 37 16 53 16
27 16 29 -17 64 -31 33 -38 35 -81 31 -38 -3 -47 -8 -52 -27 -3 -13 -28 -41
-56 -62 -27 -21 -49 -42 -50 -47 0 -9 78 -3 118 9 18 6 22 3 22 -13 0 -13 -10
-24 -31 -31 -27 -9 -31 -15 -27 -41 3 -16 2 -28 0 -25 -3 3 -12 -1 -21 -9 -9
-7 -31 -16 -49 -20 -18 -3 -52 -19 -75 -35 -23 -17 -54 -33 -69 -36 -15 -4
-29 -14 -32 -22 -8 -19 11 -43 31 -43 8 0 28 -11 45 -25 16 -14 36 -25 43 -25
9 0 5 -9 -10 -26 -14 -15 -25 -35 -25 -44 0 -21 -50 -31 -92 -20 -28 9 -43 -7
-32 -34 3 -8 -5 -21 -17 -30 -13 -8 -21 -17 -18 -19 35 -28 60 -37 110 -37 48
0 57 3 66 23 6 12 8 37 6 55 -5 29 -3 33 24 38 16 3 33 15 38 27 10 22 116 87
141 87 9 0 14 11 14 28 0 25 8 32 68 60 37 17 84 36 105 42 25 8 41 20 47 36
13 32 34 39 70 24 25 -10 29 -17 24 -34 -4 -11 -7 -22 -8 -23 -1 -1 -18 2 -38
6 -39 9 -47 6 -64 -24 -6 -11 -39 -34 -74 -51 -77 -38 -93 -60 -50 -69 21 -5
30 -13 30 -26 0 -10 -2 -19 -4 -19 -67 0 -228 -63 -219 -86 6 -16 -15 -114
-29 -130 -6 -8 -20 -9 -46 -3 -42 10 -72 4 -72 -15 0 -7 -9 -22 -20 -34 -17
-18 -32 -22 -83 -22 -48 -1 -71 -6 -102 -25 -22 -14 -48 -25 -57 -25 -9 0 -30
-8 -47 -17 -30 -17 -32 -17 -70 4 -40 23 -68 22 -106 -4 -11 -7 -28 -13 -38
-13 -13 0 -17 -7 -15 -27 3 -24 -2 -29 -29 -37 -32 -10 -53 -44 -53 -87 0 -27
-42 -34 -75 -13 -23 15 -26 21 -20 56 10 59 -11 84 -77 91 -51 6 -54 5 -85
-28 l-32 -35 27 -19 c15 -10 46 -22 70 -26 32 -5 42 -11 42 -26 0 -10 -4 -19
-9 -19 -6 0 -8 -8 -6 -18 1 -10 -3 -26 -10 -36 -12 -16 -22 -17 -69 -12 -53 7
-54 7 -90 -32 -39 -42 -89 -62 -154 -62 -44 0 -132 -33 -132 -50 0 -17 -63
-50 -97 -50 -28 0 -33 -4 -33 -24 0 -16 7 -26 23 -30 41 -11 62 -6 97 23 48
38 97 63 123 60 12 -1 35 4 50 11 23 11 37 11 76 1 44 -11 52 -10 87 8 21 12
44 21 51 21 8 0 11 9 7 28 -4 22 0 30 22 43 24 15 31 15 61 2 22 -9 47 -11 71
-7 35 7 36 6 22 -11 -8 -10 -20 -32 -25 -49 -11 -32 -24 -36 -76 -22 -23 7
-32 2 -60 -29 -42 -45 -94 -73 -154 -82 -37 -5 -45 -3 -45 10 0 9 5 19 10 22
15 9 12 25 -5 25 -32 0 -115 -50 -115 -69 0 -34 -34 -64 -80 -70 -40 -5 -45
-9 -52 -41 -5 -19 -19 -43 -31 -53 -21 -18 -22 -18 -44 9 -19 25 -26 27 -50
18 -23 -8 -29 -16 -31 -49 -4 -42 12 -80 37 -91 26 -11 134 -13 153 -3 27 15
23 63 -7 83 -14 9 -25 25 -25 36 0 16 6 18 37 15 21 -2 43 -4 48 -5 22 -5 35
1 35 14 0 7 29 33 65 56 52 34 76 43 125 47 49 5 64 3 80 -12 19 -17 24 -17
68 -4 38 12 47 20 49 40 0 13 1 29 2 36 1 6 16 16 34 22 26 9 42 7 82 -8 44
-16 50 -23 53 -50 l3 -31 -60 0 c-54 0 -62 -3 -77 -25 -22 -33 -93 -75 -128
-75 -15 0 -36 5 -48 11 -30 16 -83 2 -117 -32 -17 -16 -46 -36 -66 -44 -32
-14 -35 -19 -35 -55 0 -36 -3 -41 -37 -56 -29 -12 -45 -13 -65 -6 -25 9 -31 7
-57 -25 -25 -31 -34 -35 -62 -31 -47 7 -91 -15 -108 -52 -15 -36 -86 -74 -158
-86 -38 -6 -43 -4 -43 13 0 10 5 24 12 31 7 7 8 12 2 12 -5 0 -15 -9 -21 -20
-7 -10 -31 -24 -53 -31 -27 -8 -46 -22 -59 -44 -13 -22 -32 -37 -58 -45 -21
-6 -43 -13 -50 -15 -9 -3 -9 -13 -1 -39 9 -29 18 -38 47 -46 77 -20 83 -19
110 33 17 30 43 58 72 78 55 35 146 54 166 34 10 -11 10 -14 0 -18 -6 -3 -1
-6 13 -6 14 -1 39 8 55 19 17 11 42 20 58 20 26 0 27 2 21 38 -5 35 -4 38 28
54 22 10 40 13 49 7 8 -5 26 -9 41 -9 14 0 29 -6 31 -12 3 -8 6 -5 6 5 1 10 5
16 9 13 4 -3 6 -21 4 -40 l-4 -36 -58 0 c-71 0 -89 -6 -83 -28 6 -25 -32 -61
-94 -89 -58 -27 -90 -27 -85 0 7 42 -103 -5 -114 -49 -3 -13 -19 -31 -34 -40
-36 -22 -62 -67 -60 -107 3 -53 2 -55 -40 -55 -51 -1 -79 -31 -80 -83 0 -41
-19 -55 -51 -39 -33 18 -99 -7 -99 -37 0 -19 -37 -70 -59 -82 -12 -7 -26 -6
-43 4 -24 12 -28 11 -50 -14 -54 -59 -78 -100 -78 -133 0 -26 -9 -43 -40 -73
-22 -21 -40 -47 -40 -56 0 -24 39 -112 53 -121 6 -4 1 -9 -14 -12 -70 -16
-104 -1 -120 52 -6 22 -22 52 -34 68 l-22 28 -28 -22 c-25 -20 -30 -21 -45 -7
-9 8 -20 12 -23 9 -11 -11 -38 18 -32 33 3 8 -2 38 -10 67 -19 63 -52 87 -89
62 -13 -8 -33 -16 -47 -18 -27 -3 -38 -40 -19 -63 9 -11 8 -21 -6 -44 -14 -24
-26 -31 -66 -36 -70 -10 -81 -24 -62 -80 9 -24 19 -44 22 -44 22 3 24 -3 5
-16 -13 -9 -27 -34 -34 -57 -6 -23 -19 -48 -29 -57 -28 -25 -35 -139 -10 -168
10 -13 23 -23 29 -23 22 0 41 122 21 135 -6 3 -10 20 -10 38 0 31 0 31 16 9
20 -29 26 -28 47 8 19 32 37 39 37 16 0 -8 7 -16 15 -20 11 -4 15 2 15 27 0
18 5 39 10 47 9 13 11 13 20 0 12 -19 30 -79 30 -104 0 -10 -11 -39 -24 -65
-13 -25 -28 -68 -35 -94 -9 -41 -9 -51 6 -74 22 -33 20 -150 -3 -198 -15 -31
-14 -35 11 -84 48 -92 59 -65 56 141 -3 150 -2 160 23 213 26 57 52 78 67 54
6 -10 9 -7 9 13 0 15 5 30 10 33 7 4 3 16 -8 33 -33 47 -34 62 -7 74 15 7 25
20 25 31 0 19 2 19 27 -5 16 -14 43 -29 60 -33 30 -6 33 -4 33 17 0 30 26 68
46 68 13 0 14 -8 9 -39 -4 -25 -2 -46 6 -59 7 -12 9 -27 4 -38 -4 -11 -7 -26
-6 -34 1 -12 -10 -15 -56 -15 l-58 0 -12 -70 c-13 -69 -43 -124 -43 -78 0 27
-18 39 -33 24 -8 -8 -6 -17 9 -32 19 -18 20 -26 12 -72 -5 -29 -18 -66 -29
-83 -10 -17 -19 -44 -18 -60 l1 -29 14 33 c8 17 18 32 24 32 25 0 25 -125 0
-140 -26 -16 14 -139 45 -140 6 0 16 9 23 20 7 11 18 20 26 20 14 0 29 32 40
83 4 15 13 27 20 27 27 0 35 -60 14 -105 -9 -21 -8 -32 10 -69 30 -59 28 -87
-8 -121 -16 -16 -31 -27 -33 -24 -2 2 -12 25 -22 51 -25 68 -54 92 -102 83
-65 -11 -93 -75 -39 -89 16 -4 24 -13 24 -28 0 -13 1 -27 2 -33 7 -31 -4 -46
-45 -64 -25 -11 -45 -24 -45 -28 0 -4 9 -22 19 -40 26 -42 44 -110 37 -139 -4
-13 -15 -31 -25 -41 -12 -12 -21 -39 -26 -79 -6 -58 -6 -61 19 -72 20 -9 26
-19 26 -42 0 -17 4 -29 9 -26 4 3 12 51 16 107 5 79 11 105 26 120 10 10 19
27 19 37 0 28 24 55 46 50 16 -3 19 -12 18 -63 0 -33 4 -63 10 -67 6 -4 7 -10
4 -14 -4 -3 -20 4 -35 16 l-28 22 -8 -124 c-4 -67 -12 -129 -16 -137 -13 -26
-26 -22 -39 11 -11 28 -14 31 -23 16 -5 -9 -11 -34 -13 -56 -2 -25 -17 -58
-41 -90 -31 -44 -35 -54 -25 -73 11 -19 17 -20 68 -14 32 4 60 9 64 12 15 9
58 114 58 142 0 63 24 82 36 29 12 -55 4 -131 -18 -175 -18 -36 -19 -47 -10
-68 16 -36 15 -53 -4 -51 -9 0 -20 -6 -24 -14 -45 -93 -44 -83 -16 -140 34
-68 33 -84 -8 -110 -42 -25 -45 -33 -35 -85 16 -79 11 -120 -16 -143 -20 -17
-25 -31 -25 -67 0 -25 5 -54 12 -64 26 -43 -24 -243 -70 -277 -9 -6 -13 -18
-9 -28 8 -20 54 -21 94 -1 61 30 103 -10 87 -83 -4 -21 -7 -52 -5 -69 2 -25
-1 -33 -14 -33 -10 0 -23 -16 -32 -40 -18 -44 -28 -50 -38 -20 -9 28 4 80 20
80 18 0 25 23 16 57 -9 36 -80 65 -109 45 -9 -6 -30 -19 -45 -28 -28 -15 -29
-15 -61 22 -50 58 -75 25 -39 -51 19 -40 37 -45 54 -13 12 22 13 21 26 -17 7
-22 20 -43 28 -48 9 -5 15 -22 15 -42 0 -27 4 -35 19 -35 10 0 35 -11 55 -25
45 -30 50 -31 68 -4 12 19 17 20 36 10 30 -16 28 -40 -8 -81 -16 -19 -29 -41
-30 -48 0 -7 -11 -18 -25 -24 -21 -9 -25 -18 -25 -54 0 -24 9 -66 19 -94 14
-37 17 -59 11 -83 -15 -58 -22 -169 -10 -162 6 4 10 12 9 18 -3 23 1 34 22 58
29 34 41 10 33 -70 -5 -43 -3 -65 5 -70 14 -9 -10 -83 -34 -107 -13 -14 -15
-13 -15 11 0 24 -1 25 -16 10 -13 -12 -14 -19 -5 -28 18 -18 13 -99 -8 -138
l-19 -36 23 -28 c23 -26 24 -29 9 -64 -26 -59 -27 -70 -11 -114 9 -23 19 -63
23 -90 3 -26 10 -49 13 -52 10 -5 1 -65 -9 -65 -4 0 -11 8 -14 17 -10 25 -25
3 -25 -37 -1 -19 2 -54 5 -78 3 -23 2 -48 -4 -55 -6 -6 -13 -33 -17 -59 -8
-54 -29 -68 -48 -32 l-13 25 -33 -36 -32 -36 35 3 c25 1 40 -3 49 -16 9 -12
23 -17 47 -14 30 3 35 6 33 28 -4 51 7 90 26 90 11 0 22 -7 25 -16 10 -27 7
-104 -5 -104 -7 0 -9 -11 -4 -33 7 -33 8 -101 3 -152 -3 -30 -3 -30 54 -33 52
-3 74 7 50 22 -5 3 -8 24 -7 48 1 25 -6 60 -18 85 -19 39 -19 43 -4 67 23 34
22 89 -2 110 -20 18 -38 94 -45 194 -4 66 0 74 29 42 14 -15 17 -35 16 -90 -1
-70 -1 -71 21 -65 13 4 37 15 53 25 17 10 59 20 94 24 l64 6 -5 -52 c-7 -64
-35 -93 -84 -84 -45 9 -61 -13 -33 -48 28 -36 63 -34 79 4 8 21 20 30 36 32
13 0 30 1 37 2 18 2 10 -41 -13 -64 -11 -11 -20 -26 -20 -32 0 -7 -11 -26 -23
-42 l-23 -29 42 -43 c70 -72 93 -56 87 59 -4 53 -1 77 10 91 27 36 37 9 37
-96 0 -85 -3 -104 -20 -125 -11 -14 -20 -30 -20 -34 0 -5 119 -9 265 -9 l265
0 -1 192 c0 164 4 336 10 399 0 9 11 20 23 24 22 7 21 8 -7 14 -34 7 -43 31
-20 54 10 11 13 25 9 42 -5 19 -3 25 7 23 8 -2 16 -16 19 -31 7 -38 26 -34 22
5 -2 23 1 29 12 25 9 -4 17 2 21 14 4 10 15 24 26 29 23 13 25 4 4 -16 -24
-24 -18 -33 19 -30 51 5 54 9 44 78 -5 35 -6 79 -3 99 7 43 -11 62 -32 34 -13
-18 -13 -18 -13 1 0 11 13 25 33 35 23 12 31 23 30 38 -2 13 3 21 12 21 8 0
20 9 27 20 7 11 21 20 30 20 21 0 63 39 53 48 -4 4 -13 -1 -20 -11 -9 -13 -20
-17 -34 -12 -29 9 -26 25 4 25 15 0 25 6 25 14 0 11 20 26 34 26 8 0 2 -77 -6
-88 -7 -8 -7 -12 0 -12 6 0 12 6 15 13 2 6 7 9 11 5 4 -3 2 -15 -5 -26 -9 -14
-24 -20 -51 -20 -44 -1 -58 -7 -58 -28 0 -9 -7 -22 -15 -31 -9 -8 -13 -18 -10
-22 4 -3 21 11 38 32 18 20 37 37 43 37 19 0 26 -44 9 -56 -8 -6 -15 -23 -15
-37 0 -14 -4 -27 -9 -29 -12 -5 -21 -88 -9 -88 10 0 8 -23 -8 -78 -4 -13 -2
-22 5 -22 6 0 11 7 11 15 0 9 10 15 26 15 16 0 24 -5 21 -12 -2 -7 -9 -12 -14
-11 -6 1 -9 -20 -6 -53 3 -40 1 -54 -8 -49 -6 4 -15 1 -20 -6 -8 -12 -10 -12
-18 0 -7 10 -13 11 -31 1 -12 -6 -29 -9 -37 -6 -20 8 -73 -15 -73 -31 0 -7 -9
-18 -20 -25 -11 -7 -20 -18 -20 -25 0 -7 -5 -13 -11 -13 -7 0 -9 -9 -5 -24 4
-16 1 -26 -9 -30 -28 -10 -15 -26 23 -27 l37 -1 -30 -13 c-34 -16 -33 -17 17
-20 21 -1 41 -5 45 -8 7 -7 -29 -10 -86 -7 -24 1 -32 -2 -29 -12 3 -9 23 -13
61 -13 32 0 57 -3 57 -6 0 -11 -43 -18 -82 -15 -21 2 -38 0 -38 -5 0 -5 15 -9
33 -9 43 0 74 -20 32 -20 -26 -1 -28 -2 -11 -11 34 -21 195 8 181 32 -4 6 3
13 15 16 12 3 26 17 31 30 5 13 13 21 19 18 19 -12 10 -34 -25 -62 -19 -15
-35 -36 -35 -45 0 -26 -36 -58 -65 -58 -18 0 -25 -5 -25 -19 0 -10 -7 -21 -14
-24 -11 -5 -13 -13 -6 -36 4 -16 6 -32 2 -35 -3 -3 -1 -6 5 -6 18 0 35 -51 22
-66 -19 -23 -1 -54 32 -54 25 0 29 4 29 29 0 16 -5 31 -12 33 -8 3 -9 12 -1
34 13 37 5 94 -13 94 -17 0 -18 16 -2 26 6 4 14 2 16 -4 6 -20 32 -13 32 8 0
11 5 20 10 20 11 0 12 -15 4 -48 -4 -13 -12 -21 -18 -19 -13 5 -15 -91 -2
-111 4 -7 5 -24 2 -38 l-6 -24 146 0 146 0 -6 72 c-4 40 -9 136 -11 213 -3 77
-10 150 -17 162 -8 16 -8 26 0 36 17 20 37 160 23 165 -16 5 -14 45 4 68 8 10
15 29 15 42 0 13 6 22 15 22 19 0 20 49 1 76 -21 28 -29 12 -28 -56 0 -33 -4
-62 -9 -66 -15 -9 -18 -3 -24 51 -4 27 -9 53 -11 57 -3 5 0 15 6 23 7 8 10 27
7 42 -3 17 0 34 8 43 15 17 10 60 -7 60 -7 0 -6 5 1 13 6 8 10 40 10 73 -1 32
-1 70 0 82 1 13 -7 37 -16 53 -14 24 -15 33 -5 49 13 22 15 64 3 95 -5 13 -18
20 -37 20 -23 1 -29 5 -29 22 0 12 -3 25 -7 29 -11 10 -10 36 0 30 17 -10 31
11 34 51 2 23 6 39 9 37 4 -2 12 3 19 11 9 11 10 18 1 28 -6 8 -8 17 -4 20 3
4 1 13 -5 20 -7 8 -9 17 -5 20 3 4 1 7 -7 7 -10 0 -10 3 -1 14 10 12 8 15 -11
19 l-23 4 23 2 c12 0 22 5 22 10 0 15 -41 24 -53 12 -6 -6 -15 -11 -19 -11
-12 0 -1 124 11 128 21 7 11 22 -14 20 -14 -1 -25 -6 -25 -11 0 -5 -7 -15 -15
-23 -8 -9 -15 -25 -15 -36 0 -31 -41 -73 -73 -74 l-27 -1 22 21 c13 12 25 21
27 19 9 -6 31 21 31 38 0 11 5 19 10 19 6 0 10 6 10 13 1 21 48 67 63 61 29
-11 28 17 -3 54 -29 36 -30 37 -10 46 11 5 20 13 20 18 0 12 -28 10 -35 -2 -5
-8 -11 -7 -21 1 -22 18 -17 29 13 29 26 0 26 1 10 17 -17 17 -19 17 -28 1 -16
-29 -29 -21 -29 17 0 19 -4 35 -9 35 -19 0 -41 33 -41 62 0 35 -21 34 -31 -3
-11 -37 -10 -117 0 -124 5 -3 7 -21 4 -40 -5 -33 -5 -34 23 -26 20 5 30 15 32
31 3 19 0 22 -17 17 -12 -3 -21 -2 -21 3 0 10 41 21 53 13 5 -3 6 -23 3 -44
-5 -34 -4 -39 13 -39 10 0 21 -9 24 -19 3 -14 11 -18 26 -14 12 3 21 1 21 -6
0 -6 -3 -10 -7 -10 -25 4 -43 -3 -43 -16 0 -8 -9 -24 -20 -35 -18 -18 -20 -18
-20 -2 0 11 -5 7 -15 -12 -9 -16 -13 -36 -11 -43 4 -10 1 -10 -13 -1 -16 10
-17 14 -5 25 26 27 39 132 17 140 -6 2 -21 -6 -33 -19 -17 -19 -20 -32 -16
-78 2 -33 -1 -68 -9 -87 -8 -18 -10 -35 -6 -38 15 -9 18 -50 4 -80 -12 -29
-13 -29 -19 -7 -10 34 -22 26 -21 -13 1 -27 4 -32 14 -23 7 6 13 7 13 3 0 -4
9 3 19 16 11 13 22 21 26 17 9 -9 -23 -75 -41 -82 -8 -3 -11 -12 -8 -21 4 -9
0 -23 -9 -33 -13 -15 -30 -75 -32 -112 0 -8 -4 -20 -8 -27 -13 -21 10 -23 32
-2 15 14 20 27 15 41 -5 17 -3 20 10 15 9 -4 16 -2 16 3 0 6 -5 10 -10 10 -14
0 -1 50 18 73 8 9 13 20 9 23 -13 13 32 47 54 41 15 -4 27 0 36 11 13 16 14
15 11 -3 -2 -15 -12 -21 -41 -23 -20 -2 -37 -8 -37 -14 0 -6 9 -8 20 -5 23 6
26 -5 6 -22 -15 -13 -20 -101 -6 -101 6 0 10 -9 10 -19 0 -21 17 -37 28 -26 3
3 0 11 -8 16 -12 9 -12 10 3 5 9 -3 24 -9 32 -12 11 -5 14 -1 10 12 -4 12 -1
11 6 -4 7 -12 16 -22 21 -22 4 0 8 -5 8 -11 0 -5 -5 -7 -10 -4 -5 3 -10 2 -10
-4 0 -6 -6 -8 -12 -6 -7 3 -20 0 -28 -5 -13 -9 -13 -11 0 -20 8 -5 11 -10 6
-10 -5 0 -3 -7 4 -15 13 -16 11 -17 -29 -19 -25 -1 -51 -30 -38 -42 4 -4 15 0
25 9 17 16 32 14 32 -3 0 -13 -54 -27 -112 -29 -56 -2 -58 -1 -58 24 0 21 -4
26 -23 23 -18 -2 -22 2 -22 25 1 21 -3 26 -16 22 -21 -7 -51 4 -43 16 3 5 1 9
-5 9 -5 0 -13 -4 -16 -10 -3 -5 -15 -10 -25 -10 -18 0 -18 -2 -5 -35 10 -22
13 -53 10 -86 -8 -80 9 -115 33 -66 l11 22 0 -22 c1 -12 -8 -37 -18 -55 -11
-18 -23 -50 -27 -71 -6 -37 -6 -38 14 -26 11 7 23 26 26 42 3 15 10 26 15 22
6 -3 15 14 22 37 10 40 12 41 20 20 5 -14 5 -31 -1 -42 -6 -10 -10 -29 -10
-41 0 -12 -3 -19 -7 -16 -10 11 -33 -13 -33 -34 0 -11 -7 -19 -16 -19 -14 0
-16 -7 -11 -45 4 -25 3 -45 -2 -45 -15 0 -23 -51 -10 -66 9 -11 9 -18 1 -26
-9 -9 -12 -8 -12 5 0 9 -4 17 -8 17 -5 0 -6 57 -3 128 7 177 5 240 -9 257 -7
8 -9 23 -4 37 13 41 12 79 -3 94 -12 12 -14 32 -8 111 4 53 14 111 21 128 18
45 31 540 14 560 -9 11 -8 19 4 37 17 23 22 58 8 58 -10 0 -6 485 4 502 20 33
38 246 22 265 -8 10 -8 20 0 37 7 17 7 36 0 65 -8 30 -7 45 1 55 6 7 9 20 5
29 -3 8 2 27 11 40 9 14 17 45 19 68 1 24 11 57 21 72 17 26 17 34 6 90 -12
60 -22 180 -23 302 -1 41 5 74 19 105 24 52 37 169 22 207 -5 14 -6 35 -3 47
7 21 7 21 15 1 7 -18 8 -18 9 5 1 14 2 33 1 43 -1 9 2 17 6 17 5 0 17 26 28
58 11 31 23 60 29 64 5 3 13 33 17 67 5 33 18 77 29 98 11 21 20 54 20 74 0
20 6 42 14 48 8 7 17 24 21 38 3 15 22 53 41 85 18 32 36 69 39 81 3 12 23 41
44 65 34 38 61 86 136 247 52 111 61 128 87 158 31 37 31 36 80 77 22 19 38
42 40 58 3 23 9 28 50 37 52 11 108 57 108 88 0 21 5 27 95 118 30 31 55 63
55 71 0 8 12 28 28 45 15 18 47 60 72 94 25 35 62 80 82 101 21 21 56 62 77
91 22 29 55 69 75 91 43 48 116 185 116 219 0 15 10 33 23 44 28 23 67 84 68
109 1 44 40 100 137 198 56 58 102 110 102 117 0 6 16 29 35 50 19 22 35 44
35 51 0 6 9 21 19 32 22 24 81 133 81 150 0 20 49 108 85 152 20 24 33 49 30
54 -4 6 -1 17 5 26 16 19 47 71 65 111 16 34 167 193 184 193 6 0 34 25 64 55
29 30 58 55 63 55 5 0 20 11 34 25 14 14 59 51 100 81 101 74 128 126 61 116
-26 -4 -31 0 -37 22 -10 41 12 59 64 53 42 -4 102 16 102 35 0 3 11 19 24 35
13 16 26 38 28 48 2 17 -3 20 -32 21 -19 0 -42 -1 -50 -4z m-1829 -1744 c21
-17 39 -38 39 -45 0 -8 -4 -11 -10 -8 -5 3 -10 1 -10 -4 0 -6 -16 -11 -35 -11
-27 0 -41 -7 -62 -31 -16 -18 -42 -38 -60 -45 -34 -15 -83 -19 -83 -7 0 16 45
53 65 53 11 0 31 7 44 16 18 13 22 23 17 45 -4 21 0 34 16 49 28 26 32 26 79
-12z m-318 -102 c20 -16 22 -26 4 -26 -7 0 -26 -13 -42 -30 -18 -19 -39 -30
-56 -30 -37 0 -46 -15 -54 -87 l-7 -61 50 -3 c50 -4 51 -4 57 28 8 42 86 93
110 73 9 -7 27 -10 45 -6 54 10 31 -32 -42 -77 -16 -10 -28 -26 -28 -36 0 -10
-11 -26 -25 -35 -14 -9 -27 -27 -31 -41 -3 -14 -10 -25 -14 -25 -5 0 -22 -11
-38 -25 -24 -20 -32 -22 -45 -12 -13 9 -15 19 -8 42 8 30 -13 95 -31 95 -5 0
-26 12 -47 26 -37 24 -39 28 -34 62 3 20 12 44 19 53 8 8 14 21 14 27 0 7 12
12 28 12 18 0 42 14 74 45 50 47 71 53 101 31z m-279 -337 c13 -6 27 -20 29
-30 4 -15 14 -19 46 -19 31 0 39 -3 35 -14 -3 -8 -16 -17 -29 -20 -14 -4 -25
-15 -27 -28 -2 -15 -13 -24 -33 -30 -17 -4 -44 -21 -60 -38 -32 -33 -60 -38
-86 -14 -16 15 -23 12 -88 -30 -39 -25 -71 -50 -71 -55 0 -16 -52 -61 -86 -76
-26 -11 -33 -21 -39 -56 -9 -53 11 -74 63 -64 60 11 78 24 90 68 17 61 88 119
156 128 52 7 96 -8 96 -33 0 -15 -45 -55 -102 -90 -31 -19 -48 -37 -48 -49 0
-12 -10 -23 -26 -29 -47 -18 -55 -34 -52 -106 l3 -66 -38 -2 c-43 -3 -49 2
-66 69 -7 27 -19 57 -27 66 -19 21 -64 31 -64 14 0 -24 -30 -26 -39 -2 -17 45
-39 150 -35 162 3 7 17 16 32 20 38 9 81 53 92 95 8 29 20 41 62 64 45 25 64
28 147 30 l95 2 14 60 c20 81 21 84 26 84 3 0 16 -5 30 -11z m-683 -495 c10
-9 30 -16 44 -16 14 0 28 -4 31 -9 3 -5 -3 -9 -12 -9 -10 0 -26 -7 -36 -17
-16 -15 -17 -18 -3 -33 15 -16 14 -22 -11 -66 -43 -78 -102 -134 -140 -134
-42 0 -94 -56 -94 -101 0 -19 -10 -43 -25 -61 -28 -33 -30 -46 -14 -118 9 -40
16 -53 36 -61 39 -15 79 -10 98 11 10 11 26 20 37 20 15 0 17 -5 12 -27 -4
-16 -10 -33 -15 -39 -5 -5 -10 -45 -11 -87 -3 -79 -11 -97 -22 -51 l-7 27 -15
-22 c-23 -33 -34 -25 -34 24 0 38 -4 48 -30 66 -16 12 -32 35 -35 51 -5 19
-12 28 -20 24 -8 -3 -16 0 -18 7 -2 7 -17 12 -33 12 -26 0 -30 4 -41 48 -6 27
-16 54 -21 60 -15 18 4 57 28 57 11 0 21 3 21 8 1 4 3 16 5 27 15 100 24 130
42 144 11 9 25 26 31 38 12 24 73 54 158 79 49 14 53 18 55 47 0 18 0 41 -1
52 -2 25 7 65 16 65 3 0 15 -7 24 -16z m169 -154 c14 -16 31 -21 79 -21 63 -1
82 -19 27 -25 -31 -3 -56 -20 -56 -39 0 -6 -8 -20 -19 -29 -10 -9 -21 -35 -25
-57 -5 -29 -19 -54 -53 -90 -61 -65 -114 -67 -63 -2 11 14 20 36 20 48 0 12 9
30 21 41 33 30 40 50 28 78 -9 19 -9 36 1 71 7 25 15 45 18 45 2 0 13 -9 22
-20z m-1020 -235 c20 -37 62 -37 98 1 40 43 47 34 51 -70 l2 -69 -38 6 c-21 4
-60 7 -88 7 -43 0 -55 5 -87 36 -42 39 -44 46 -25 66 7 7 16 21 20 31 10 26
51 21 67 -8z m490 -262 c-2 -27 -28 -103 -40 -118 -14 -17 -13 -18 2 -12 10 3
20 2 24 -4 11 -19 -18 -38 -64 -41 -36 -2 -46 -6 -43 -18 22 -76 -2 -190 -39
-190 -14 0 -23 -12 -31 -40 -10 -33 -15 -38 -27 -28 -11 10 -18 8 -32 -10 -10
-12 -21 -22 -25 -22 -4 0 -5 40 -3 89 4 70 10 96 27 120 33 47 44 40 37 -23
-7 -51 -6 -54 13 -49 11 3 23 13 25 22 5 17 0 129 -9 191 -8 55 10 70 70 59
56 -10 75 -7 75 15 0 24 19 66 30 66 5 0 10 -3 10 -7z m38 -238 c9 -19 19 -25
42 -25 34 0 37 -10 14 -45 -13 -20 -14 -28 -5 -39 10 -12 7 -15 -21 -18 -30
-3 -33 -7 -40 -45 -8 -49 -23 -82 -48 -103 -9 -8 -25 -37 -36 -65 l-19 -50 -3
38 c-2 25 5 56 22 92 14 29 26 57 26 60 0 4 7 22 16 41 15 31 15 37 1 73 -14
34 -14 41 -2 51 8 7 15 23 15 36 0 32 24 31 38 -1z m46 -3121 c25 -10 19 -33
-20 -76 -25 -28 -34 -46 -31 -60 7 -24 -6 -46 -50 -95 -18 -19 -33 -40 -33
-48 0 -16 25 -26 47 -18 13 5 15 3 8 -13 -4 -10 -10 -36 -13 -57 -5 -44 -41
-77 -84 -77 -61 0 -80 30 -62 97 5 18 11 21 34 17 31 -7 47 16 31 44 -6 11 -4
26 5 45 9 16 13 36 11 45 -2 9 3 29 10 45 10 20 21 27 42 27 27 0 30 4 40 52
16 71 29 86 65 72z m-96 -486 c17 -17 15 -36 -6 -43 -25 -7 -43 -48 -36 -82 8
-42 -35 -117 -69 -121 -18 -2 -29 2 -33 12 -3 9 -14 16 -24 16 -10 0 -23 7
-30 15 -21 25 12 65 55 65 35 0 56 17 36 30 -7 4 -23 5 -36 3 -19 -4 -24 0
-30 26 -10 45 0 53 64 49 44 -2 56 0 57 12 0 8 2 18 2 23 3 11 37 8 50 -5z
m182 -448 c6 -11 8 -31 4 -46 -4 -14 -1 -43 6 -64 13 -38 8 -112 -9 -139 -8
-12 -12 -12 -25 2 -9 8 -16 25 -16 35 0 29 -30 142 -44 164 -9 16 -7 23 17 44
34 29 53 30 67 4z"/>
<path d="M4229 8065 c-13 -22 -31 -37 -48 -41 -84 -17 -79 -58 10 -75 120 -23
116 -23 122 2 4 13 4 25 2 28 -3 2 -5 -1 -5 -7 0 -20 -17 -13 -23 9 -4 14 3
29 24 48 35 34 37 51 5 51 -14 0 -28 5 -31 10 -12 20 -36 9 -56 -25z"/>
<path d="M3985 7890 c-10 -44 23 -102 63 -114 28 -8 36 -6 60 17 15 14 39 30
55 36 34 13 34 31 1 62 -21 20 -36 24 -99 25 -73 1 -74 1 -80 -26z"/>
<path d="M2595 7761 c-11 -5 -49 -12 -85 -16 -109 -13 -206 -65 -429 -233
-120 -89 -161 -126 -161 -143 0 -4 -3 -14 -6 -22 -4 -12 0 -15 18 -12 37 5
177 44 253 70 62 21 244 107 285 135 8 6 32 17 52 25 26 10 50 33 80 76 24 34
49 70 57 80 28 38 -10 62 -64 40z"/>
<path d="M3212 7401 c-20 -21 -59 -50 -87 -64 l-50 -25 100 1 100 2 23 48 c29
57 24 77 -18 77 -24 0 -41 -10 -68 -39z"/>
<path d="M3345 7254 c-14 -15 -25 -31 -25 -35 0 -22 -52 -33 -169 -34 l-123
-1 -27 -31 c-23 -27 -46 -42 -111 -73 -8 -4 -15 -18 -15 -31 0 -21 4 -24 42
-24 22 0 39 3 37 7 -2 3 14 22 36 41 79 67 290 105 290 52 0 -11 8 -11 38 -3
49 13 59 22 66 63 4 19 16 44 28 54 11 11 17 24 13 30 -12 20 -55 12 -80 -15z"/>
<path d="M2536 6934 c-35 -39 -117 -90 -139 -85 -5 1 -6 -3 -2 -8 3 -6 11 -8
18 -6 7 2 34 6 60 9 58 6 71 -12 37 -49 -22 -23 -22 -25 -5 -32 11 -4 20 -2
23 5 2 7 9 12 15 12 29 1 51 33 64 92 22 96 22 103 -7 105 -18 1 -35 -10 -64
-43z"/>
<path d="M1565 6956 c-22 -7 -67 -21 -100 -30 -145 -42 -270 -89 -331 -127
-85 -51 -248 -165 -339 -236 -38 -30 -136 -104 -217 -164 -185 -137 -211 -176
-92 -134 40 14 303 86 474 130 155 40 221 67 249 102 14 18 30 33 34 33 5 0
33 12 63 26 49 23 104 80 104 107 0 20 72 124 102 147 63 50 149 140 143 150
-8 13 -41 12 -90 -4z"/>
<path d="M1985 6259 c-43 -54 -111 -95 -178 -106 -32 -5 -41 -2 -54 16 -20 29
-54 24 -71 -11 -7 -16 -23 -33 -35 -39 -12 -7 -26 -18 -30 -25 -4 -8 -24 -14
-42 -14 -25 0 -35 -5 -35 -15 0 -11 7 -14 23 -10 12 3 39 -3 62 -15 49 -25 49
-25 63 5 7 15 30 33 55 44 23 10 48 26 56 34 7 9 29 19 50 23 20 4 41 10 46
14 6 4 30 8 54 7 35 0 45 -4 49 -19 4 -16 11 -19 35 -14 16 3 35 6 41 6 12 0
14 140 2 159 -16 26 -52 10 -91 -40z"/>
<path d="M520 5990 c-58 -16 -139 -40 -180 -53 -41 -14 -100 -30 -130 -36 -30
-7 -90 -23 -132 -37 l-78 -26 0 -979 c0 -864 2 -979 15 -979 8 0 15 -8 16 -17
0 -10 2 -27 4 -37 2 -11 -5 -27 -16 -37 -19 -16 -19 -49 -19 -1903 l0 -1886
86 0 c70 0 85 3 81 14 -3 8 -1 30 4 50 8 29 6 43 -11 75 -27 54 -25 86 9 181
29 77 29 82 15 123 -11 30 -13 60 -8 104 5 53 3 66 -15 91 -40 57 -44 79 -21
153 20 63 20 71 6 123 -8 31 -12 66 -9 79 9 33 41 75 63 82 35 11 50 58 51
155 1 66 -3 96 -14 114 -9 13 -14 32 -11 42 3 11 -2 38 -10 61 -17 48 -6 102
28 141 18 20 19 26 8 52 -39 97 -38 88 -13 135 13 25 28 45 32 45 5 0 16 12
26 27 13 20 19 58 24 156 7 136 -1 189 -36 256 -20 40 -15 108 12 162 15 31
15 35 -1 63 -10 17 -21 57 -23 88 -5 55 -4 59 28 91 19 19 40 36 46 38 32 10
45 154 29 329 -11 124 -16 145 -42 175 -28 33 -29 56 -9 143 11 47 12 74 5
107 -12 54 -5 96 27 156 23 43 24 52 18 135 -4 49 -8 125 -9 169 -4 205 -4
204 -31 217 -19 9 -25 19 -25 42 0 17 -2 46 -6 64 -4 19 -2 43 4 55 32 68 33
86 1 130 -25 35 -31 55 -34 114 -4 60 -1 74 16 94 13 15 18 31 14 44 -4 11
-10 56 -14 101 -4 44 -10 84 -13 90 -20 31 -26 208 -9 270 5 18 5 38 -1 49 -6
9 -10 39 -10 67 0 44 4 54 51 108 51 59 60 75 41 82 -7 2 -7 13 0 33 5 17 12
47 15 68 5 28 20 52 65 97 66 67 94 112 86 138 -4 11 6 31 23 53 25 30 103
140 125 177 11 19 -26 14 -144 -18z"/>
<path d="M1434 5892 c4 -30 9 -59 12 -64 9 -15 87 -5 122 15 37 22 35 19 21
50 -15 33 -53 51 -113 53 l-48 1 6 -55z"/>
<path d="M1589 5773 c-5 -59 0 -93 20 -125 27 -44 53 -49 110 -19 20 11 44 22
54 25 19 6 22 37 7 66 -15 27 -95 60 -146 60 -24 0 -44 -3 -45 -7z"/>
<path d="M1438 5683 c-8 -10 -26 -39 -38 -65 -13 -26 -32 -50 -42 -54 -10 -3
-18 -9 -18 -13 0 -5 -12 -11 -27 -15 -29 -6 -98 -86 -84 -96 11 -7 22 -40 13
-40 -4 0 -13 10 -21 22 l-13 22 -16 -29 c-8 -16 -32 -51 -53 -78 -22 -27 -39
-52 -39 -55 2 -31 40 -118 54 -120 9 -2 16 1 16 6 0 5 11 13 25 16 16 4 27 16
32 34 3 15 17 48 30 73 13 26 23 54 23 62 0 9 6 20 14 24 7 4 21 23 30 41 9
17 21 32 26 32 6 0 10 7 10 15 0 8 6 15 14 15 8 0 28 11 44 25 30 25 62 33 62
15 0 -14 49 -8 62 7 6 8 7 24 2 40 -4 16 -8 48 -9 72 -2 24 -9 47 -16 52 -23
14 -65 10 -81 -8z"/>
<path d="M3709 5205 c-7 -27 -3 -135 5 -135 4 0 6 -7 2 -15 -3 -8 -1 -15 5
-15 12 0 0 -50 -17 -71 -8 -8 -14 -24 -14 -35 0 -17 3 -16 20 6 11 14 20 32
20 41 0 14 19 29 36 29 7 0 -9 -65 -19 -78 -7 -9 -7 -16 1 -24 7 -7 12 -23 12
-36 0 -33 23 -23 31 14 4 16 7 23 8 16 0 -7 11 -17 24 -22 17 -7 18 -9 5 -9
-22 -1 -24 -31 -3 -31 8 0 15 4 15 9 0 5 8 11 18 15 9 3 23 9 30 12 7 3 12 -1
12 -11 0 -9 -4 -14 -9 -10 -13 8 -22 -10 -15 -29 9 -24 54 -21 54 4 0 15 7 20
24 20 18 0 26 7 29 23 l4 22 2 -22 c1 -27 17 -30 24 -5 2 9 8 25 12 35 5 13 2
17 -14 17 -12 0 -21 5 -21 12 0 6 -3 9 -6 5 -3 -3 -24 6 -46 20 -29 18 -49 23
-69 19 -36 -7 -38 10 -3 26 l25 12 -23 18 c-33 25 -41 22 -33 -12 4 -19 3 -30
-4 -30 -6 0 -11 7 -11 16 0 8 -13 20 -30 25 -21 8 -30 18 -30 32 0 12 -7 31
-15 41 -8 11 -15 31 -16 45 0 29 -16 72 -20 56z"/>
<path d="M4443 4990 c-3 -11 -12 -20 -20 -20 -8 0 -17 -9 -20 -21 -4 -14 -8
-17 -13 -9 -5 8 -13 9 -26 2 -32 -16 -68 -30 -99 -38 -40 -10 -125 -13 -125
-4 0 4 -11 6 -25 5 -14 -2 -25 1 -25 6 0 5 -11 9 -23 9 -25 0 -47 -33 -47 -70
0 -30 18 -24 41 13 l21 32 -6 -32 c-7 -39 -4 -40 24 -10 l21 22 -3 -30 c-2
-24 1 -31 18 -33 15 -2 26 7 39 32 l19 34 13 -25 c10 -19 10 -29 2 -39 -9 -11
-7 -14 11 -14 18 0 21 4 17 21 -8 32 1 47 27 42 16 -3 32 5 54 26 32 32 47 38
57 21 4 -6 15 -2 27 10 12 11 28 20 35 20 14 0 33 31 33 54 0 23 -21 20 -27
-4z"/>
<path d="M3250 4820 c0 -5 -8 -10 -18 -10 -38 0 -43 -22 -12 -52 34 -32 50
-35 51 -10 0 10 3 12 6 5 7 -18 23 -16 23 1 0 8 4 17 9 20 4 3 6 -6 3 -19 -7
-37 21 -32 42 8 9 17 14 23 10 12 -18 -53 -16 -62 9 -69 33 -8 57 2 57 24 0
10 6 33 14 52 l15 34 -31 2 c-18 2 -36 -3 -40 -10 -8 -10 -11 -10 -15 0 -6 16
-28 15 -43 -3 -7 -8 -16 -12 -21 -9 -5 3 -12 -2 -15 -11 -6 -14 -8 -14 -24 2
-9 10 -15 24 -12 31 2 6 1 12 -2 12 -3 0 -6 -4 -6 -10z"/>
<path d="M503 4718 c-6 -7 -14 -35 -18 -63 -3 -27 -10 -59 -14 -70 -5 -11 -14
-33 -20 -49 -15 -35 -2 -51 30 -40 13 4 39 6 58 5 l34 -3 -6 41 c-3 22 -12 54
-21 72 -9 18 -16 46 -16 63 0 42 -13 62 -27 44z"/>
<path d="M3895 4700 c-3 -5 -12 -7 -19 -4 -7 3 -16 -3 -20 -12 -8 -22 2 -33
14 -14 19 31 20 0 2 -39 -13 -26 -16 -43 -10 -47 6 -4 13 -2 17 3 20 32 73 9
64 -28 -3 -10 -9 -19 -13 -19 -19 0 -36 -95 -19 -106 8 -5 13 20 13 68 0 9 4
15 8 11 5 -3 12 4 15 15 3 11 11 23 19 26 8 3 14 12 14 20 0 9 6 13 14 10 7
-3 16 2 19 10 4 9 16 16 28 16 12 0 19 5 16 13 -2 6 -15 11 -29 9 -13 -2 -30
4 -37 11 -7 9 -21 13 -33 10 -17 -5 -19 -3 -13 16 5 15 2 21 -9 21 -9 0 -16 5
-16 10 0 13 -17 13 -25 0z"/>
<path d="M642 4332 c-17 -11 -5 -66 19 -88 11 -10 19 -30 19 -49 0 -37 38 -79
67 -73 15 3 17 11 15 47 -6 71 -26 125 -51 137 -12 7 -28 17 -34 23 -13 13
-18 13 -35 3z"/>
<path d="M870 4219 c-57 -23 -78 -69 -41 -89 12 -6 26 -33 36 -65 12 -42 20
-55 35 -55 24 0 35 18 31 53 -1 17 3 29 13 33 21 8 20 40 -4 92 -20 44 -28 47
-70 31z"/>
<path d="M777 3994 c-3 -3 3 -22 13 -42 11 -21 27 -68 37 -106 l18 -68 -34
-29 c-30 -24 -35 -36 -39 -82 -4 -47 -1 -57 19 -75 32 -31 45 -14 52 66 3 46
13 82 31 115 31 58 33 88 5 113 -30 27 -51 72 -44 94 5 17 2 20 -23 20 -16 0
-31 -3 -35 -6z"/>
<path d="M2721 3693 c-7 -21 -11 -43 -10 -48 2 -6 -5 -22 -15 -37 -10 -15 -15
-31 -12 -37 3 -5 1 -11 -5 -13 -6 -2 -12 -21 -13 -43 -1 -22 -10 -57 -20 -78
-23 -46 -13 -62 11 -19 19 33 40 46 86 56 23 5 27 11 27 40 0 19 3 42 6 51 5
11 0 18 -14 22 -29 7 -35 34 -22 84 15 54 -2 73 -19 22z"/>
<path d="M2550 3472 c-18 -17 -48 -38 -66 -48 -19 -10 -34 -26 -34 -35 0 -11
-6 -16 -18 -13 -13 4 -21 -5 -32 -38 -11 -31 -21 -44 -38 -46 -23 -4 -46 -34
-34 -47 4 -3 2 -5 -4 -3 -5 2 -32 -16 -58 -39 -27 -24 -46 -43 -41 -43 11 0
67 33 89 53 11 10 26 15 32 13 16 -6 40 22 48 58 6 23 9 27 16 15 12 -19 43
-1 50 30 3 12 8 22 13 22 53 -5 77 16 77 65 0 28 4 34 20 34 23 0 38 26 23 41
-7 7 -21 0 -43 -19z"/>
<path d="M2828 3406 c4 -35 -10 -52 -47 -58 -25 -3 -31 -10 -53 -65 -7 -18
-17 -33 -23 -33 -5 0 -18 -13 -29 -28 -19 -29 -68 -62 -90 -62 -21 0 -59 -48
-52 -65 3 -9 2 -13 -4 -10 -5 3 -7 0 -4 -8 9 -25 39 -13 42 16 3 24 5 25 18
13 8 -8 14 -19 13 -23 -1 -4 -1 -16 0 -27 1 -15 4 -16 15 -7 12 10 17 8 26 -8
6 -12 15 -21 20 -21 13 0 38 59 44 105 9 69 18 105 27 105 5 0 9 9 9 20 0 11
4 20 9 20 5 0 9 -13 9 -30 -1 -16 -5 -30 -10 -30 -13 0 -10 -134 4 -148 10
-10 10 -17 0 -32 -19 -31 -15 -94 8 -115 19 -17 20 -17 26 1 3 11 12 31 20 46
8 14 14 33 14 41 0 8 7 17 15 21 8 3 12 12 9 20 -7 18 16 33 26 17 5 -9 11 -7
21 5 13 16 11 17 -28 12 -36 -5 -43 -3 -49 14 -3 11 -2 24 3 29 5 5 8 23 5 39
-3 21 -8 27 -20 22 -12 -4 -11 1 6 22 12 16 22 37 22 47 0 24 40 65 59 61 10
-3 12 4 9 22 -3 13 -1 31 3 38 6 9 9 5 9 -12 1 -23 2 -23 11 -6 12 19 -1 36
-28 36 -6 0 -24 11 -40 24 l-29 24 4 -32z"/>
<path d="M9498 3325 c-2 -3 1 -53 9 -112 7 -60 13 -141 14 -181 1 -53 4 -71
12 -63 16 16 25 14 32 -9 3 -11 13 -20 21 -20 8 0 14 -9 14 -21 0 -11 5 -17
10 -14 6 4 8 12 4 18 -3 7 2 3 10 -7 21 -26 21 -26 -10 -59 -19 -21 -24 -36
-22 -64 2 -29 -3 -43 -29 -71 -18 -20 -35 -34 -37 -31 -8 8 -9 81 -1 165 6 62
5 83 -5 89 -8 5 -11 4 -7 -2 4 -6 0 -28 -9 -48 -20 -48 -34 -395 -16 -395 12
0 16 13 13 39 -2 7 0 20 3 27 5 13 10 13 35 -1 17 -8 40 -17 53 -18 19 -3 24
-11 26 -45 3 -34 0 -41 -12 -36 -19 7 -21 44 -3 44 6 0 1 6 -13 13 -36 19 -70
10 -70 -18 0 -13 -5 -25 -11 -27 -14 -5 -14 -231 0 -323 13 -89 14 -266 1
-300 -5 -14 -12 -49 -14 -78 -3 -28 -12 -72 -21 -97 -22 -60 -37 -144 -36
-200 0 -25 -1 -50 -4 -57 -2 -7 -6 -126 -9 -265 -4 -239 -6 -257 -31 -333 -14
-44 -33 -90 -40 -102 -10 -14 -14 -52 -14 -120 -1 -54 -4 -145 -8 -203 -7 -94
-9 -212 -4 -352 l1 -48 335 0 335 0 0 615 c0 538 -2 616 -15 621 -8 4 -15 15
-15 25 0 10 -11 26 -25 35 -16 10 -25 26 -25 43 l-1 26 -13 -24 c-13 -23 -13
-23 -34 20 -19 40 -22 42 -28 22 -7 -25 -12 -27 -34 -13 -12 8 -12 10 -1 10
19 0 5 13 -16 16 -42 6 -61 15 -67 30 -8 21 1 34 23 34 10 0 26 11 35 24 14
23 22 25 78 23 81 -3 94 -11 74 -42 -14 -21 -14 -25 0 -36 9 -7 20 -23 25 -36
5 -13 15 -23 24 -23 13 0 15 19 15 116 0 63 -5 124 -10 135 -7 13 -7 19 0 19
6 0 10 32 10 82 0 81 0 81 -20 63 -19 -17 -22 -17 -36 -3 -14 14 -12 16 15 21
18 4 34 14 37 22 12 30 -17 133 -46 165 l-27 30 -11 -25 c-16 -35 -15 -37 11
-31 12 3 16 3 10 0 -16 -7 -17 -45 -1 -41 6 1 14 -7 16 -18 2 -11 9 -23 15
-26 5 -4 0 -12 -13 -19 -20 -11 -25 -10 -35 4 -17 23 -25 20 -25 -9 0 -16 6
-25 15 -25 9 0 15 -9 15 -21 0 -12 15 -35 35 -52 19 -16 35 -37 35 -46 0 -14
-2 -14 -10 -1 -8 12 -10 11 -10 -8 0 -16 -5 -22 -17 -20 -10 2 -21 8 -25 13
-4 6 -8 -9 -8 -32 0 -33 -6 -48 -31 -72 -35 -36 -49 -39 -49 -12 0 14 8 21 28
23 23 3 27 8 29 37 1 25 -3 35 -17 38 -23 6 -64 161 -48 181 14 17 3 26 -19
18 -10 -4 -20 -6 -22 -4 -2 2 -6 32 -8 68 -3 36 -9 69 -14 75 -12 13 -11 59 2
72 8 8 8 13 0 17 -6 4 -11 2 -11 -5 0 -7 -9 -3 -20 9 -16 17 -18 26 -11 41 6
10 9 56 8 101 l-2 84 43 2 c23 1 45 -2 48 -7 7 -13 24 -1 24 17 0 8 -10 14
-24 14 -13 0 -26 7 -30 15 -3 8 -12 15 -19 15 -7 0 -20 11 -27 25 -7 14 -17
25 -22 25 -4 0 -8 16 -8 36 0 31 -3 35 -20 29 -16 -5 -20 -2 -20 18 0 14 7 28
15 31 13 5 14 10 5 27 -6 11 -9 27 -6 34 3 8 1 17 -4 20 -6 4 -10 15 -10 26 0
10 -4 19 -9 19 -5 0 -7 10 -4 21 5 19 3 21 -20 17 -43 -8 -49 11 -24 86 19 61
24 67 44 61 24 -6 29 4 14 33 -5 9 -16 33 -24 52 -14 32 -16 33 -17 10 -1 -24
-2 -23 -19 9 -12 23 -20 30 -24 20 -4 -9 -6 -10 -6 -1 -1 6 -10 12 -20 12 -17
0 -19 6 -14 59 4 39 2 61 -6 66 -8 5 -6 12 9 25 21 18 21 18 2 32 -11 7 -22
31 -27 56 -4 23 -11 42 -17 42 -6 0 -8 11 -6 25 5 23 -2 32 -14 20z"/>
<path d="M923 3116 c-34 -13 -62 -41 -63 -65 0 -8 16 -33 35 -57 19 -23 35
-47 35 -52 0 -5 7 -16 16 -23 14 -11 19 -9 35 11 31 41 35 106 10 156 -11 24
-24 43 -28 43 -5 -1 -23 -7 -40 -13z"/>
<path d="M2898 2792 c-18 -4 -21 -15 -23 -117 -1 -65 6 -77 22 -40 12 29 12
29 7 -15 -5 -44 -5 -45 11 -20 13 20 15 21 11 5 -5 -20 -9 -79 -7 -103 1 -7 5
-11 10 -8 11 7 6 -138 -6 -178 -7 -24 -19 -32 -73 -49 -36 -12 -67 -23 -69
-24 -8 -6 19 -27 36 -28 10 -1 30 -6 45 -10 25 -6 27 -4 31 27 l4 33 1 -37 c2
-48 22 -50 22 -4 0 19 4 37 9 40 4 3 11 37 15 75 3 39 15 88 25 108 30 59 28
106 -6 126 -7 4 -13 19 -13 32 0 13 -6 25 -12 28 -10 3 -10 9 0 27 13 21 12
22 -6 18 -27 -7 -31 6 -22 67 4 28 7 50 6 51 0 0 -9 -1 -18 -4z"/>
<path d="M2672 1873 c-12 -21 -27 -50 -34 -65 -7 -15 -29 -35 -50 -45 -38 -18
-46 -36 -27 -63 8 -12 9 -10 4 9 -5 17 -4 21 5 16 6 -4 10 -18 7 -32 -3 -15 0
-22 7 -20 6 2 14 20 17 40 9 57 21 58 13 2 l-6 -50 22 20 23 20 -12 -22 c-29
-56 7 -85 46 -37 17 20 21 22 14 7 -17 -33 -13 -37 15 -18 15 9 23 12 20 6 -4
-6 -3 -11 2 -11 5 0 12 8 16 18 3 9 9 22 12 29 3 6 -4 14 -15 18 -15 4 -21 15
-21 35 0 15 -6 30 -14 33 -8 3 -14 20 -14 41 0 19 6 40 14 47 25 20 12 59 -20
59 -1 0 -12 -17 -24 -37z"/>
<path d="M566 1205 l-18 -45 25 -48 c23 -43 24 -51 12 -84 -8 -25 -9 -40 -2
-47 7 -7 5 -17 -8 -31 -14 -16 -15 -22 -5 -35 19 -23 28 -18 44 20 13 29 20
35 46 35 38 0 47 20 27 63 -8 17 -21 52 -30 77 -40 118 -49 140 -60 140 -7 0
-20 -20 -31 -45z"/>
<path d="M7538 1183 c-2 -10 0 -33 4 -50 7 -27 4 -42 -22 -88 -25 -45 -30 -63
-24 -88 4 -18 8 -50 9 -73 1 -22 5 -46 9 -53 5 -7 1 -20 -9 -31 -15 -17 -16
-22 -5 -35 11 -13 11 -23 2 -48 -6 -18 -14 -85 -17 -150 -3 -65 -10 -129 -16
-144 -8 -21 -7 -29 6 -35 19 -11 19 -42 0 -71 -14 -22 -14 -55 1 -79 4 -6 9
-42 11 -80 4 -67 4 -69 -18 -66 -20 3 -23 -2 -25 -44 l-3 -48 84 0 c79 0 84 1
87 22 2 13 0 37 -4 53 -5 17 -13 139 -18 273 -5 133 -12 247 -15 252 -10 17
-20 242 -18 423 1 97 -2 177 -7 177 -5 0 -10 -8 -12 -17z"/>
<path d="M2740 1116 c0 -19 -4 -23 -20 -19 -12 3 -22 -1 -26 -11 -3 -9 -12
-16 -19 -16 -14 0 -25 -31 -25 -72 0 -21 5 -28 20 -28 12 0 20 -7 20 -17 0
-15 2 -16 10 -3 13 20 13 33 0 25 -5 -3 -10 0 -10 8 0 8 9 17 20 20 12 3 20
14 20 26 0 12 6 21 15 21 8 0 15 8 16 18 0 11 2 12 6 4 3 -7 -2 -28 -11 -46
-18 -39 -19 -46 -8 -64 14 -22 41 -2 48 36 4 21 13 51 21 69 17 42 17 43 -11
43 -13 0 -26 7 -30 15 -9 25 -36 18 -36 -9z"/>
<path d="M710 826 c0 -25 -2 -26 -41 -20 -36 6 -44 4 -65 -21 -13 -16 -24 -23
-24 -17 0 6 -16 20 -35 32 -33 20 -37 21 -59 7 -32 -21 -43 -67 -20 -80 10 -6
31 -24 46 -41 23 -25 31 -29 46 -20 15 10 35 40 45 68 6 18 47 -20 53 -50 14
-75 -71 -138 -111 -82 l-16 23 -37 -41 c-20 -23 -49 -44 -64 -48 -17 -4 -28
-13 -28 -23 0 -10 -7 -37 -16 -61 -14 -36 -15 -46 -4 -67 7 -14 19 -25 25 -25
25 0 48 -39 42 -70 -9 -44 0 -60 38 -60 38 0 45 11 40 69 l-3 42 23 -23 c26
-25 26 -49 -2 -104 -14 -28 -14 -34 4 -75 10 -24 17 -52 15 -61 -5 -23 -33
-31 -66 -18 -51 19 -66 14 -66 -25 l0 -35 181 0 180 0 -3 32 c-3 29 -7 33 -39
39 -55 8 -103 41 -107 71 -3 22 2 28 31 37 19 6 42 8 52 5 17 -7 18 0 13 123
-4 98 -2 138 8 163 8 18 14 54 14 81 0 39 -5 54 -30 81 -32 35 -34 66 -5 98 7
8 15 37 17 65 2 41 0 50 -14 53 -14 3 -18 -3 -18 -22z"/>
</g>
</svg>
